<mxfile host="app.diagrams.net" agent="Mozilla/5.0 (Windows NT 10.0; Win64; x64) AppleWebKit/537.36 (KHTML, like Gecko) Chrome/128.0.0.0 Safari/537.36" version="24.7.14">
  <diagram name="Página-1" id="24HMQWVAIdSYc8zCq1KH">
    <mxGraphModel dx="3121" dy="777" grid="1" gridSize="10" guides="1" tooltips="1" connect="1" arrows="1" fold="1" page="1" pageScale="1" pageWidth="827" pageHeight="1169" math="0" shadow="0">
      <root>
        <mxCell id="0" />
        <mxCell id="1" parent="0" />
        <mxCell id="0iyKYwHK2RuOoZLVOAF2-130" value="" style="rounded=0;whiteSpace=wrap;html=1;" parent="1" vertex="1">
          <mxGeometry x="-380" y="3205" width="600" height="485" as="geometry" />
        </mxCell>
        <mxCell id="0iyKYwHK2RuOoZLVOAF2-126" value="" style="rounded=0;whiteSpace=wrap;html=1;" parent="1" vertex="1">
          <mxGeometry x="460" y="3205" width="380" height="485" as="geometry" />
        </mxCell>
        <mxCell id="0iyKYwHK2RuOoZLVOAF2-197" value="" style="rounded=0;whiteSpace=wrap;html=1;" parent="1" vertex="1">
          <mxGeometry x="2241" y="1430" width="509" height="520" as="geometry" />
        </mxCell>
        <mxCell id="0iyKYwHK2RuOoZLVOAF2-170" value="" style="rounded=0;whiteSpace=wrap;html=1;" parent="1" vertex="1">
          <mxGeometry x="1549" y="1430" width="617" height="520" as="geometry" />
        </mxCell>
        <mxCell id="0iyKYwHK2RuOoZLVOAF2-58" value="" style="rounded=0;whiteSpace=wrap;html=1;" parent="1" vertex="1">
          <mxGeometry x="1930" y="2248.5" width="520" height="521.5" as="geometry" />
        </mxCell>
        <mxCell id="0iyKYwHK2RuOoZLVOAF2-32" value="" style="rounded=0;whiteSpace=wrap;html=1;" parent="1" vertex="1">
          <mxGeometry x="1260" y="2257" width="617" height="593" as="geometry" />
        </mxCell>
        <mxCell id="0iyKYwHK2RuOoZLVOAF2-3" value="" style="rounded=0;whiteSpace=wrap;html=1;" parent="1" vertex="1">
          <mxGeometry x="558" y="2257" width="617" height="593" as="geometry" />
        </mxCell>
        <mxCell id="wuaz71Ys6J9YfRkgNqtm-59" value="" style="rounded=0;whiteSpace=wrap;html=1;" parent="1" vertex="1">
          <mxGeometry x="-164.5" y="2214" width="510.5" height="536" as="geometry" />
        </mxCell>
        <mxCell id="wuaz71Ys6J9YfRkgNqtm-60" value="" style="rounded=0;whiteSpace=wrap;html=1;" parent="1" vertex="1">
          <mxGeometry x="-836" y="2214" width="596" height="476" as="geometry" />
        </mxCell>
        <mxCell id="wuaz71Ys6J9YfRkgNqtm-32" value="" style="rounded=0;whiteSpace=wrap;html=1;" parent="1" vertex="1">
          <mxGeometry x="-1600" y="2210" width="660" height="550" as="geometry" />
        </mxCell>
        <mxCell id="wuaz71Ys6J9YfRkgNqtm-3" value="" style="rounded=0;whiteSpace=wrap;html=1;" parent="1" vertex="1">
          <mxGeometry x="723" y="1426" width="617" height="524" as="geometry" />
        </mxCell>
        <mxCell id="fTdmXy7tgA4tEe0zFuN1-217" value="" style="rounded=0;whiteSpace=wrap;html=1;" parent="1" vertex="1">
          <mxGeometry x="-47" y="1426" width="700" height="525" as="geometry" />
        </mxCell>
        <mxCell id="fTdmXy7tgA4tEe0zFuN1-188" value="" style="rounded=0;whiteSpace=wrap;html=1;" parent="1" vertex="1">
          <mxGeometry x="-770" y="1430" width="580" height="500" as="geometry" />
        </mxCell>
        <mxCell id="fTdmXy7tgA4tEe0zFuN1-68" value="" style="rounded=0;whiteSpace=wrap;html=1;" parent="1" vertex="1">
          <mxGeometry x="40" y="570" width="520" height="670" as="geometry" />
        </mxCell>
        <mxCell id="fTdmXy7tgA4tEe0zFuN1-71" value="Acceder proyecto" style="text;html=1;align=center;verticalAlign=middle;resizable=0;points=[];autosize=1;strokeColor=none;fillColor=none;" parent="1" vertex="1">
          <mxGeometry x="40" y="570" width="120" height="30" as="geometry" />
        </mxCell>
        <mxCell id="fTdmXy7tgA4tEe0zFuN1-72" style="edgeStyle=orthogonalEdgeStyle;rounded=0;orthogonalLoop=1;jettySize=auto;html=1;entryX=0.5;entryY=0;entryDx=0;entryDy=0;" parent="1" source="fTdmXy7tgA4tEe0zFuN1-73" target="fTdmXy7tgA4tEe0zFuN1-77" edge="1">
          <mxGeometry relative="1" as="geometry">
            <mxPoint x="308" y="720" as="targetPoint" />
            <Array as="points" />
          </mxGeometry>
        </mxCell>
        <mxCell id="fTdmXy7tgA4tEe0zFuN1-73" value="Ingresar a resumen de proyecto" style="whiteSpace=wrap;html=1;" parent="1" vertex="1">
          <mxGeometry x="248" y="640" width="120" height="60" as="geometry" />
        </mxCell>
        <mxCell id="fTdmXy7tgA4tEe0zFuN1-75" style="edgeStyle=orthogonalEdgeStyle;rounded=0;orthogonalLoop=1;jettySize=auto;html=1;entryX=0.5;entryY=0;entryDx=0;entryDy=0;" parent="1" source="fTdmXy7tgA4tEe0zFuN1-77" target="fTdmXy7tgA4tEe0zFuN1-79" edge="1">
          <mxGeometry relative="1" as="geometry">
            <Array as="points">
              <mxPoint x="203" y="780" />
            </Array>
          </mxGeometry>
        </mxCell>
        <mxCell id="fTdmXy7tgA4tEe0zFuN1-76" style="edgeStyle=orthogonalEdgeStyle;rounded=0;orthogonalLoop=1;jettySize=auto;html=1;entryX=0.5;entryY=0;entryDx=0;entryDy=0;" parent="1" source="fTdmXy7tgA4tEe0zFuN1-77" target="fTdmXy7tgA4tEe0zFuN1-81" edge="1">
          <mxGeometry relative="1" as="geometry">
            <mxPoint x="400" y="990" as="targetPoint" />
            <Array as="points">
              <mxPoint x="400" y="780" />
              <mxPoint x="400" y="990" />
            </Array>
          </mxGeometry>
        </mxCell>
        <mxCell id="fTdmXy7tgA4tEe0zFuN1-77" value="¿Existen riesgos cargados?" style="rhombus;whiteSpace=wrap;html=1;" parent="1" vertex="1">
          <mxGeometry x="253" y="730" width="110" height="100" as="geometry" />
        </mxCell>
        <mxCell id="fTdmXy7tgA4tEe0zFuN1-175" style="edgeStyle=orthogonalEdgeStyle;rounded=0;orthogonalLoop=1;jettySize=auto;html=1;entryX=0.5;entryY=0;entryDx=0;entryDy=0;" parent="1" source="fTdmXy7tgA4tEe0zFuN1-79" target="fTdmXy7tgA4tEe0zFuN1-173" edge="1">
          <mxGeometry relative="1" as="geometry" />
        </mxCell>
        <mxCell id="fTdmXy7tgA4tEe0zFuN1-79" value="Cargar graficos y metricas" style="whiteSpace=wrap;html=1;" parent="1" vertex="1">
          <mxGeometry x="143" y="1000" width="120" height="60" as="geometry" />
        </mxCell>
        <mxCell id="fTdmXy7tgA4tEe0zFuN1-174" style="edgeStyle=orthogonalEdgeStyle;rounded=0;orthogonalLoop=1;jettySize=auto;html=1;" parent="1" source="fTdmXy7tgA4tEe0zFuN1-81" target="fTdmXy7tgA4tEe0zFuN1-173" edge="1">
          <mxGeometry relative="1" as="geometry" />
        </mxCell>
        <mxCell id="fTdmXy7tgA4tEe0zFuN1-81" value="Cargar graficos y metricas vacias" style="whiteSpace=wrap;html=1;" parent="1" vertex="1">
          <mxGeometry x="340" y="1000" width="120" height="60" as="geometry" />
        </mxCell>
        <mxCell id="fTdmXy7tgA4tEe0zFuN1-82" value="No" style="text;html=1;align=center;verticalAlign=middle;resizable=0;points=[];autosize=1;strokeColor=none;fillColor=none;" parent="1" vertex="1">
          <mxGeometry x="383" y="750" width="40" height="30" as="geometry" />
        </mxCell>
        <mxCell id="fTdmXy7tgA4tEe0zFuN1-83" value="Si" style="text;html=1;align=center;verticalAlign=middle;resizable=0;points=[];autosize=1;strokeColor=none;fillColor=none;" parent="1" vertex="1">
          <mxGeometry x="213" y="750" width="30" height="30" as="geometry" />
        </mxCell>
        <mxCell id="fTdmXy7tgA4tEe0zFuN1-5" style="edgeStyle=orthogonalEdgeStyle;rounded=0;orthogonalLoop=1;jettySize=auto;html=1;entryX=0.5;entryY=0;entryDx=0;entryDy=0;" parent="1" source="fTdmXy7tgA4tEe0zFuN1-1" target="fTdmXy7tgA4tEe0zFuN1-4" edge="1">
          <mxGeometry relative="1" as="geometry" />
        </mxCell>
        <mxCell id="fTdmXy7tgA4tEe0zFuN1-1" value="Inicio" style="rounded=1;whiteSpace=wrap;html=1;" parent="1" vertex="1">
          <mxGeometry x="356" y="10" width="116" height="30" as="geometry" />
        </mxCell>
        <mxCell id="fTdmXy7tgA4tEe0zFuN1-11" style="edgeStyle=orthogonalEdgeStyle;rounded=0;orthogonalLoop=1;jettySize=auto;html=1;entryX=1;entryY=0.5;entryDx=0;entryDy=0;" parent="1" source="fTdmXy7tgA4tEe0zFuN1-3" target="fTdmXy7tgA4tEe0zFuN1-1" edge="1">
          <mxGeometry relative="1" as="geometry">
            <Array as="points">
              <mxPoint x="600" y="25" />
            </Array>
          </mxGeometry>
        </mxCell>
        <mxCell id="fTdmXy7tgA4tEe0zFuN1-3" value="Solicitar registro" style="rounded=0;whiteSpace=wrap;html=1;" parent="1" vertex="1">
          <mxGeometry x="540" y="95" width="120" height="60" as="geometry" />
        </mxCell>
        <mxCell id="fTdmXy7tgA4tEe0zFuN1-7" style="edgeStyle=orthogonalEdgeStyle;rounded=0;orthogonalLoop=1;jettySize=auto;html=1;" parent="1" source="fTdmXy7tgA4tEe0zFuN1-4" target="fTdmXy7tgA4tEe0zFuN1-6" edge="1">
          <mxGeometry relative="1" as="geometry" />
        </mxCell>
        <mxCell id="fTdmXy7tgA4tEe0zFuN1-8" style="edgeStyle=orthogonalEdgeStyle;rounded=0;orthogonalLoop=1;jettySize=auto;html=1;" parent="1" source="fTdmXy7tgA4tEe0zFuN1-4" target="fTdmXy7tgA4tEe0zFuN1-3" edge="1">
          <mxGeometry relative="1" as="geometry" />
        </mxCell>
        <mxCell id="fTdmXy7tgA4tEe0zFuN1-4" value="¿Esta registrado?" style="rhombus;whiteSpace=wrap;html=1;" parent="1" vertex="1">
          <mxGeometry x="366" y="80" width="96" height="90" as="geometry" />
        </mxCell>
        <mxCell id="fTdmXy7tgA4tEe0zFuN1-15" style="edgeStyle=orthogonalEdgeStyle;rounded=0;orthogonalLoop=1;jettySize=auto;html=1;entryX=0.5;entryY=0;entryDx=0;entryDy=0;" parent="1" source="fTdmXy7tgA4tEe0zFuN1-6" target="fTdmXy7tgA4tEe0zFuN1-14" edge="1">
          <mxGeometry relative="1" as="geometry">
            <Array as="points">
              <mxPoint x="308" y="270" />
            </Array>
          </mxGeometry>
        </mxCell>
        <mxCell id="fTdmXy7tgA4tEe0zFuN1-19" style="edgeStyle=orthogonalEdgeStyle;rounded=0;orthogonalLoop=1;jettySize=auto;html=1;" parent="1" source="fTdmXy7tgA4tEe0zFuN1-6" target="fTdmXy7tgA4tEe0zFuN1-73" edge="1">
          <mxGeometry relative="1" as="geometry">
            <mxPoint x="557" y="350" as="targetPoint" />
            <Array as="points">
              <mxPoint x="520" y="270" />
              <mxPoint x="520" y="530" />
              <mxPoint x="308" y="530" />
            </Array>
          </mxGeometry>
        </mxCell>
        <mxCell id="fTdmXy7tgA4tEe0zFuN1-6" value="¿Tiene mas de un proyecto asignado?" style="rhombus;whiteSpace=wrap;html=1;" parent="1" vertex="1">
          <mxGeometry x="347" y="220" width="134" height="100" as="geometry" />
        </mxCell>
        <mxCell id="fTdmXy7tgA4tEe0zFuN1-9" value="Si" style="text;html=1;align=center;verticalAlign=middle;resizable=0;points=[];autosize=1;strokeColor=none;fillColor=none;" parent="1" vertex="1">
          <mxGeometry x="380" y="180" width="30" height="30" as="geometry" />
        </mxCell>
        <mxCell id="fTdmXy7tgA4tEe0zFuN1-10" value="No" style="text;html=1;align=center;verticalAlign=middle;resizable=0;points=[];autosize=1;strokeColor=none;fillColor=none;" parent="1" vertex="1">
          <mxGeometry x="457" y="95" width="40" height="30" as="geometry" />
        </mxCell>
        <mxCell id="fTdmXy7tgA4tEe0zFuN1-13" style="rounded=0;orthogonalLoop=1;jettySize=auto;html=1;endArrow=none;endFill=0;dashed=1;dashPattern=12 12;" parent="1" source="fTdmXy7tgA4tEe0zFuN1-12" target="fTdmXy7tgA4tEe0zFuN1-3" edge="1">
          <mxGeometry relative="1" as="geometry" />
        </mxCell>
        <mxCell id="fTdmXy7tgA4tEe0zFuN1-12" value="Esto es manual" style="ellipse;shape=cloud;whiteSpace=wrap;html=1;" parent="1" vertex="1">
          <mxGeometry x="690" y="70" width="120" height="80" as="geometry" />
        </mxCell>
        <mxCell id="fTdmXy7tgA4tEe0zFuN1-84" style="edgeStyle=orthogonalEdgeStyle;rounded=0;orthogonalLoop=1;jettySize=auto;html=1;entryX=0.5;entryY=0;entryDx=0;entryDy=0;" parent="1" source="fTdmXy7tgA4tEe0zFuN1-14" target="fTdmXy7tgA4tEe0zFuN1-73" edge="1">
          <mxGeometry relative="1" as="geometry">
            <Array as="points">
              <mxPoint x="308" y="560" />
              <mxPoint x="308" y="560" />
            </Array>
          </mxGeometry>
        </mxCell>
        <mxCell id="fTdmXy7tgA4tEe0zFuN1-14" value="Ingresa a pantalla de gestión de proyectos" style="rounded=0;whiteSpace=wrap;html=1;" parent="1" vertex="1">
          <mxGeometry x="248" y="450" width="120" height="60" as="geometry" />
        </mxCell>
        <mxCell id="fTdmXy7tgA4tEe0zFuN1-20" value="Si" style="text;html=1;align=center;verticalAlign=middle;resizable=0;points=[];autosize=1;strokeColor=none;fillColor=none;" parent="1" vertex="1">
          <mxGeometry x="315" y="238" width="30" height="30" as="geometry" />
        </mxCell>
        <mxCell id="fTdmXy7tgA4tEe0zFuN1-21" value="No" style="text;html=1;align=center;verticalAlign=middle;resizable=0;points=[];autosize=1;strokeColor=none;fillColor=none;" parent="1" vertex="1">
          <mxGeometry x="490" y="238" width="40" height="30" as="geometry" />
        </mxCell>
        <mxCell id="fTdmXy7tgA4tEe0zFuN1-232" style="edgeStyle=orthogonalEdgeStyle;rounded=0;orthogonalLoop=1;jettySize=auto;html=1;" parent="1" source="fTdmXy7tgA4tEe0zFuN1-173" target="fTdmXy7tgA4tEe0zFuN1-191" edge="1">
          <mxGeometry relative="1" as="geometry">
            <Array as="points">
              <mxPoint x="303" y="1400" />
              <mxPoint x="-395" y="1400" />
            </Array>
          </mxGeometry>
        </mxCell>
        <mxCell id="fTdmXy7tgA4tEe0zFuN1-238" style="edgeStyle=orthogonalEdgeStyle;rounded=0;orthogonalLoop=1;jettySize=auto;html=1;entryX=0.5;entryY=0;entryDx=0;entryDy=0;" parent="1" source="fTdmXy7tgA4tEe0zFuN1-173" target="fTdmXy7tgA4tEe0zFuN1-237" edge="1">
          <mxGeometry relative="1" as="geometry" />
        </mxCell>
        <mxCell id="wuaz71Ys6J9YfRkgNqtm-31" style="edgeStyle=orthogonalEdgeStyle;rounded=0;orthogonalLoop=1;jettySize=auto;html=1;" parent="1" source="fTdmXy7tgA4tEe0zFuN1-173" target="wuaz71Ys6J9YfRkgNqtm-19" edge="1">
          <mxGeometry relative="1" as="geometry">
            <Array as="points">
              <mxPoint x="303" y="1400" />
              <mxPoint x="1089" y="1400" />
            </Array>
          </mxGeometry>
        </mxCell>
        <mxCell id="wuaz71Ys6J9YfRkgNqtm-57" style="edgeStyle=orthogonalEdgeStyle;rounded=0;orthogonalLoop=1;jettySize=auto;html=1;entryX=0.5;entryY=0;entryDx=0;entryDy=0;" parent="1" source="fTdmXy7tgA4tEe0zFuN1-173" target="wuaz71Ys6J9YfRkgNqtm-55" edge="1">
          <mxGeometry relative="1" as="geometry">
            <Array as="points">
              <mxPoint x="303" y="1380" />
              <mxPoint x="-100" y="1380" />
              <mxPoint x="-100" y="2030" />
              <mxPoint x="-535" y="2030" />
            </Array>
          </mxGeometry>
        </mxCell>
        <mxCell id="0iyKYwHK2RuOoZLVOAF2-2" style="edgeStyle=orthogonalEdgeStyle;rounded=0;orthogonalLoop=1;jettySize=auto;html=1;entryX=0.5;entryY=0;entryDx=0;entryDy=0;" parent="1" source="fTdmXy7tgA4tEe0zFuN1-173" target="0iyKYwHK2RuOoZLVOAF2-1" edge="1">
          <mxGeometry relative="1" as="geometry">
            <Array as="points">
              <mxPoint x="303" y="1380" />
              <mxPoint x="700" y="1380" />
              <mxPoint x="700" y="2090" />
            </Array>
          </mxGeometry>
        </mxCell>
        <mxCell id="0iyKYwHK2RuOoZLVOAF2-193" style="edgeStyle=orthogonalEdgeStyle;rounded=0;orthogonalLoop=1;jettySize=auto;html=1;entryX=0.5;entryY=0;entryDx=0;entryDy=0;" parent="1" edge="1">
          <mxGeometry relative="1" as="geometry">
            <mxPoint x="303" y="1370" as="sourcePoint" />
            <mxPoint x="1924.5" y="1452" as="targetPoint" />
            <Array as="points">
              <mxPoint x="303" y="1400" />
              <mxPoint x="1925" y="1400" />
            </Array>
          </mxGeometry>
        </mxCell>
        <mxCell id="0iyKYwHK2RuOoZLVOAF2-217" style="edgeStyle=orthogonalEdgeStyle;rounded=0;orthogonalLoop=1;jettySize=auto;html=1;" parent="1" source="fTdmXy7tgA4tEe0zFuN1-173" target="0iyKYwHK2RuOoZLVOAF2-208" edge="1">
          <mxGeometry relative="1" as="geometry">
            <mxPoint x="1680" y="1380" as="targetPoint" />
            <Array as="points">
              <mxPoint x="303" y="1400" />
              <mxPoint x="2607" y="1400" />
            </Array>
          </mxGeometry>
        </mxCell>
        <mxCell id="fTdmXy7tgA4tEe0zFuN1-173" value="Ingresa a Listar Riesgos" style="whiteSpace=wrap;html=1;" parent="1" vertex="1">
          <mxGeometry x="243" y="1310" width="120" height="60" as="geometry" />
        </mxCell>
        <mxCell id="fTdmXy7tgA4tEe0zFuN1-189" value="Añadir riesgo" style="text;html=1;align=center;verticalAlign=middle;resizable=0;points=[];autosize=1;strokeColor=none;fillColor=none;" parent="1" vertex="1">
          <mxGeometry x="-760" y="1430" width="90" height="30" as="geometry" />
        </mxCell>
        <mxCell id="fTdmXy7tgA4tEe0zFuN1-190" value="" style="edgeStyle=orthogonalEdgeStyle;rounded=0;orthogonalLoop=1;jettySize=auto;html=1;" parent="1" source="fTdmXy7tgA4tEe0zFuN1-191" edge="1">
          <mxGeometry relative="1" as="geometry">
            <mxPoint x="-395" y="1575" as="targetPoint" />
          </mxGeometry>
        </mxCell>
        <mxCell id="fTdmXy7tgA4tEe0zFuN1-191" value="Ingresar a añadir riesgos" style="whiteSpace=wrap;html=1;" parent="1" vertex="1">
          <mxGeometry x="-455" y="1486" width="120" height="60" as="geometry" />
        </mxCell>
        <mxCell id="fTdmXy7tgA4tEe0zFuN1-193" style="edgeStyle=orthogonalEdgeStyle;rounded=0;orthogonalLoop=1;jettySize=auto;html=1;" parent="1" source="fTdmXy7tgA4tEe0zFuN1-194" target="fTdmXy7tgA4tEe0zFuN1-197" edge="1">
          <mxGeometry relative="1" as="geometry" />
        </mxCell>
        <mxCell id="fTdmXy7tgA4tEe0zFuN1-194" value="Cargar identificador, nombre, descripcion, responsable,&amp;nbsp;&lt;div&gt;fecha de creacion, categoria, evaluacion&lt;span style=&quot;background-color: initial;&quot;&gt;, definición.&lt;/span&gt;&lt;/div&gt;" style="shape=parallelogram;perimeter=parallelogramPerimeter;whiteSpace=wrap;html=1;fixedSize=1;" parent="1" vertex="1">
          <mxGeometry x="-500" y="1575" width="215" height="80" as="geometry" />
        </mxCell>
        <mxCell id="fTdmXy7tgA4tEe0zFuN1-196" style="edgeStyle=orthogonalEdgeStyle;rounded=0;orthogonalLoop=1;jettySize=auto;html=1;entryX=0.5;entryY=0;entryDx=0;entryDy=0;exitX=0.5;exitY=1;exitDx=0;exitDy=0;" parent="1" source="fTdmXy7tgA4tEe0zFuN1-209" target="fTdmXy7tgA4tEe0zFuN1-202" edge="1">
          <mxGeometry relative="1" as="geometry">
            <Array as="points">
              <mxPoint x="-487" y="1810" />
            </Array>
            <mxPoint x="-487" y="1756" as="targetPoint" />
          </mxGeometry>
        </mxCell>
        <mxCell id="fTdmXy7tgA4tEe0zFuN1-211" style="edgeStyle=orthogonalEdgeStyle;rounded=0;orthogonalLoop=1;jettySize=auto;html=1;entryX=0.5;entryY=0;entryDx=0;entryDy=0;" parent="1" source="fTdmXy7tgA4tEe0zFuN1-197" target="fTdmXy7tgA4tEe0zFuN1-209" edge="1">
          <mxGeometry relative="1" as="geometry">
            <Array as="points">
              <mxPoint x="-487" y="1729" />
            </Array>
          </mxGeometry>
        </mxCell>
        <mxCell id="fTdmXy7tgA4tEe0zFuN1-213" style="edgeStyle=orthogonalEdgeStyle;rounded=0;orthogonalLoop=1;jettySize=auto;html=1;entryX=0.5;entryY=0;entryDx=0;entryDy=0;" parent="1" source="fTdmXy7tgA4tEe0zFuN1-197" target="fTdmXy7tgA4tEe0zFuN1-212" edge="1">
          <mxGeometry relative="1" as="geometry">
            <Array as="points">
              <mxPoint x="-275" y="1729" />
            </Array>
          </mxGeometry>
        </mxCell>
        <mxCell id="fTdmXy7tgA4tEe0zFuN1-197" value="¿Confirma el nuevo riesgo?" style="rhombus;whiteSpace=wrap;html=1;" parent="1" vertex="1">
          <mxGeometry x="-455" y="1689" width="125" height="80" as="geometry" />
        </mxCell>
        <mxCell id="fTdmXy7tgA4tEe0zFuN1-198" value="Si" style="text;html=1;align=center;verticalAlign=middle;resizable=0;points=[];autosize=1;strokeColor=none;fillColor=none;" parent="1" vertex="1">
          <mxGeometry x="-477.5" y="1695" width="30" height="30" as="geometry" />
        </mxCell>
        <mxCell id="fTdmXy7tgA4tEe0zFuN1-199" value="No" style="text;html=1;align=center;verticalAlign=middle;resizable=0;points=[];autosize=1;strokeColor=none;fillColor=none;" parent="1" vertex="1">
          <mxGeometry x="-332.5" y="1695" width="40" height="30" as="geometry" />
        </mxCell>
        <mxCell id="fTdmXy7tgA4tEe0zFuN1-201" style="edgeStyle=orthogonalEdgeStyle;rounded=0;orthogonalLoop=1;jettySize=auto;html=1;entryX=0.5;entryY=0;entryDx=0;entryDy=0;" parent="1" source="fTdmXy7tgA4tEe0zFuN1-202" target="fTdmXy7tgA4tEe0zFuN1-191" edge="1">
          <mxGeometry relative="1" as="geometry">
            <Array as="points">
              <mxPoint x="-640" y="1875" />
              <mxPoint x="-640" y="1460" />
              <mxPoint x="-395" y="1460" />
            </Array>
          </mxGeometry>
        </mxCell>
        <mxCell id="fTdmXy7tgA4tEe0zFuN1-214" style="edgeStyle=orthogonalEdgeStyle;rounded=0;orthogonalLoop=1;jettySize=auto;html=1;entryX=0.5;entryY=0;entryDx=0;entryDy=0;" parent="1" source="fTdmXy7tgA4tEe0zFuN1-202" target="fTdmXy7tgA4tEe0zFuN1-173" edge="1">
          <mxGeometry relative="1" as="geometry">
            <Array as="points">
              <mxPoint x="-130" y="1875" />
              <mxPoint x="-130" y="1290" />
              <mxPoint x="303" y="1290" />
            </Array>
          </mxGeometry>
        </mxCell>
        <mxCell id="fTdmXy7tgA4tEe0zFuN1-202" value="¿Desea cargar otro?" style="rhombus;whiteSpace=wrap;html=1;" parent="1" vertex="1">
          <mxGeometry x="-550" y="1835" width="125" height="80" as="geometry" />
        </mxCell>
        <mxCell id="fTdmXy7tgA4tEe0zFuN1-203" value="Si" style="text;html=1;align=center;verticalAlign=middle;resizable=0;points=[];autosize=1;strokeColor=none;fillColor=none;" parent="1" vertex="1">
          <mxGeometry x="-580" y="1835" width="30" height="30" as="geometry" />
        </mxCell>
        <mxCell id="fTdmXy7tgA4tEe0zFuN1-204" value="No" style="text;html=1;align=center;verticalAlign=middle;resizable=0;points=[];autosize=1;strokeColor=none;fillColor=none;" parent="1" vertex="1">
          <mxGeometry x="-435" y="1835" width="40" height="30" as="geometry" />
        </mxCell>
        <mxCell id="fTdmXy7tgA4tEe0zFuN1-209" value="Crear riesgo" style="whiteSpace=wrap;html=1;" parent="1" vertex="1">
          <mxGeometry x="-547.5" y="1754" width="120" height="60" as="geometry" />
        </mxCell>
        <mxCell id="fTdmXy7tgA4tEe0zFuN1-216" style="edgeStyle=orthogonalEdgeStyle;rounded=0;orthogonalLoop=1;jettySize=auto;html=1;endArrow=none;endFill=0;" parent="1" edge="1">
          <mxGeometry relative="1" as="geometry">
            <mxPoint x="-130" y="1680" as="targetPoint" />
            <mxPoint x="-276" y="1754" as="sourcePoint" />
            <Array as="points">
              <mxPoint x="-276" y="1830" />
              <mxPoint x="-130" y="1830" />
            </Array>
          </mxGeometry>
        </mxCell>
        <mxCell id="fTdmXy7tgA4tEe0zFuN1-212" value="Descartar riesgo" style="whiteSpace=wrap;html=1;" parent="1" vertex="1">
          <mxGeometry x="-335" y="1754" width="120" height="60" as="geometry" />
        </mxCell>
        <mxCell id="fTdmXy7tgA4tEe0zFuN1-218" value="Modificar riesgo" style="text;html=1;align=center;verticalAlign=middle;resizable=0;points=[];autosize=1;strokeColor=none;fillColor=none;" parent="1" vertex="1">
          <mxGeometry x="-47" y="1426" width="110" height="30" as="geometry" />
        </mxCell>
        <mxCell id="fTdmXy7tgA4tEe0zFuN1-241" style="edgeStyle=orthogonalEdgeStyle;rounded=0;orthogonalLoop=1;jettySize=auto;html=1;" parent="1" source="fTdmXy7tgA4tEe0zFuN1-220" target="fTdmXy7tgA4tEe0zFuN1-222" edge="1">
          <mxGeometry relative="1" as="geometry" />
        </mxCell>
        <mxCell id="fTdmXy7tgA4tEe0zFuN1-220" value="Ingresar a modificar riesgo" style="whiteSpace=wrap;html=1;" parent="1" vertex="1">
          <mxGeometry x="153" y="1575" width="120" height="60" as="geometry" />
        </mxCell>
        <mxCell id="fTdmXy7tgA4tEe0zFuN1-221" style="edgeStyle=orthogonalEdgeStyle;rounded=0;orthogonalLoop=1;jettySize=auto;html=1;entryX=0.5;entryY=0;entryDx=0;entryDy=0;" parent="1" source="fTdmXy7tgA4tEe0zFuN1-222" target="fTdmXy7tgA4tEe0zFuN1-226" edge="1">
          <mxGeometry relative="1" as="geometry" />
        </mxCell>
        <mxCell id="fTdmXy7tgA4tEe0zFuN1-222" value="&lt;div&gt;Actualizar atributos&lt;/div&gt;" style="shape=parallelogram;perimeter=parallelogramPerimeter;whiteSpace=wrap;html=1;fixedSize=1;" parent="1" vertex="1">
          <mxGeometry x="105.5" y="1661" width="215" height="80" as="geometry" />
        </mxCell>
        <mxCell id="fTdmXy7tgA4tEe0zFuN1-223" value="" style="rounded=0;orthogonalLoop=1;jettySize=auto;html=1;dashed=1;endArrow=none;endFill=0;" parent="1" source="fTdmXy7tgA4tEe0zFuN1-222" target="fTdmXy7tgA4tEe0zFuN1-224" edge="1">
          <mxGeometry relative="1" as="geometry">
            <mxPoint x="303" y="1697" as="sourcePoint" />
          </mxGeometry>
        </mxCell>
        <mxCell id="fTdmXy7tgA4tEe0zFuN1-224" value="Cualquier atributo&amp;nbsp;&lt;div&gt;del riesgo&lt;span style=&quot;background-color: initial;&quot;&gt;&amp;nbsp;&lt;/span&gt;&lt;/div&gt;" style="ellipse;shape=cloud;whiteSpace=wrap;html=1;" parent="1" vertex="1">
          <mxGeometry x="373" y="1656" width="190" height="110" as="geometry" />
        </mxCell>
        <mxCell id="fTdmXy7tgA4tEe0zFuN1-225" style="edgeStyle=orthogonalEdgeStyle;rounded=0;orthogonalLoop=1;jettySize=auto;html=1;entryX=0.5;entryY=0;entryDx=0;entryDy=0;" parent="1" source="fTdmXy7tgA4tEe0zFuN1-226" target="fTdmXy7tgA4tEe0zFuN1-228" edge="1">
          <mxGeometry relative="1" as="geometry" />
        </mxCell>
        <mxCell id="fTdmXy7tgA4tEe0zFuN1-236" style="edgeStyle=orthogonalEdgeStyle;rounded=0;orthogonalLoop=1;jettySize=auto;html=1;" parent="1" source="fTdmXy7tgA4tEe0zFuN1-226" target="fTdmXy7tgA4tEe0zFuN1-235" edge="1">
          <mxGeometry relative="1" as="geometry">
            <Array as="points">
              <mxPoint x="333" y="1806" />
            </Array>
          </mxGeometry>
        </mxCell>
        <mxCell id="fTdmXy7tgA4tEe0zFuN1-226" value="¿Confirma cambios?" style="rhombus;whiteSpace=wrap;html=1;" parent="1" vertex="1">
          <mxGeometry x="150.5" y="1766" width="125" height="80" as="geometry" />
        </mxCell>
        <mxCell id="fTdmXy7tgA4tEe0zFuN1-243" style="edgeStyle=orthogonalEdgeStyle;rounded=0;orthogonalLoop=1;jettySize=auto;html=1;endArrow=none;endFill=0;" parent="1" source="fTdmXy7tgA4tEe0zFuN1-228" edge="1">
          <mxGeometry relative="1" as="geometry">
            <mxPoint x="670" y="1440.5263157894738" as="targetPoint" />
            <Array as="points">
              <mxPoint x="83" y="1990" />
              <mxPoint x="671" y="1990" />
              <mxPoint x="671" y="1440" />
            </Array>
          </mxGeometry>
        </mxCell>
        <mxCell id="fTdmXy7tgA4tEe0zFuN1-228" value="Actualizar riesgo" style="whiteSpace=wrap;html=1;" parent="1" vertex="1">
          <mxGeometry x="23" y="1866" width="120" height="60" as="geometry" />
        </mxCell>
        <mxCell id="fTdmXy7tgA4tEe0zFuN1-229" value="Si" style="text;html=1;align=center;verticalAlign=middle;resizable=0;points=[];autosize=1;strokeColor=none;fillColor=none;" parent="1" vertex="1">
          <mxGeometry x="118" y="1781" width="30" height="30" as="geometry" />
        </mxCell>
        <mxCell id="fTdmXy7tgA4tEe0zFuN1-230" value="No" style="text;html=1;align=center;verticalAlign=middle;resizable=0;points=[];autosize=1;strokeColor=none;fillColor=none;" parent="1" vertex="1">
          <mxGeometry x="263" y="1781" width="40" height="30" as="geometry" />
        </mxCell>
        <mxCell id="fTdmXy7tgA4tEe0zFuN1-244" style="edgeStyle=orthogonalEdgeStyle;rounded=0;orthogonalLoop=1;jettySize=auto;html=1;endArrow=none;endFill=0;" parent="1" source="fTdmXy7tgA4tEe0zFuN1-235" edge="1">
          <mxGeometry relative="1" as="geometry">
            <mxPoint x="333" y="1990" as="targetPoint" />
          </mxGeometry>
        </mxCell>
        <mxCell id="fTdmXy7tgA4tEe0zFuN1-235" value="Descartar cambios" style="whiteSpace=wrap;html=1;" parent="1" vertex="1">
          <mxGeometry x="273" y="1866" width="120" height="60" as="geometry" />
        </mxCell>
        <mxCell id="fTdmXy7tgA4tEe0zFuN1-240" style="edgeStyle=orthogonalEdgeStyle;rounded=0;orthogonalLoop=1;jettySize=auto;html=1;entryX=0.5;entryY=0;entryDx=0;entryDy=0;exitX=0;exitY=0.5;exitDx=0;exitDy=0;" parent="1" source="fTdmXy7tgA4tEe0zFuN1-237" target="fTdmXy7tgA4tEe0zFuN1-220" edge="1">
          <mxGeometry relative="1" as="geometry">
            <Array as="points">
              <mxPoint x="213" y="1496" />
            </Array>
          </mxGeometry>
        </mxCell>
        <mxCell id="fTdmXy7tgA4tEe0zFuN1-242" style="edgeStyle=orthogonalEdgeStyle;rounded=0;orthogonalLoop=1;jettySize=auto;html=1;entryX=0.5;entryY=0;entryDx=0;entryDy=0;" parent="1" source="fTdmXy7tgA4tEe0zFuN1-237" target="fTdmXy7tgA4tEe0zFuN1-173" edge="1">
          <mxGeometry relative="1" as="geometry">
            <Array as="points">
              <mxPoint x="670" y="1496" />
              <mxPoint x="670" y="1290" />
              <mxPoint x="303" y="1290" />
            </Array>
          </mxGeometry>
        </mxCell>
        <mxCell id="fTdmXy7tgA4tEe0zFuN1-237" value="¿Es lider de proyecto?" style="rhombus;whiteSpace=wrap;html=1;" parent="1" vertex="1">
          <mxGeometry x="241" y="1456" width="125" height="80" as="geometry" />
        </mxCell>
        <mxCell id="wuaz71Ys6J9YfRkgNqtm-1" value="Si" style="text;html=1;align=center;verticalAlign=middle;resizable=0;points=[];autosize=1;strokeColor=none;fillColor=none;" parent="1" vertex="1">
          <mxGeometry x="215.5" y="1470" width="30" height="30" as="geometry" />
        </mxCell>
        <mxCell id="wuaz71Ys6J9YfRkgNqtm-2" value="No" style="text;html=1;align=center;verticalAlign=middle;resizable=0;points=[];autosize=1;strokeColor=none;fillColor=none;" parent="1" vertex="1">
          <mxGeometry x="360.5" y="1470" width="40" height="30" as="geometry" />
        </mxCell>
        <mxCell id="wuaz71Ys6J9YfRkgNqtm-4" value="Eliminar riesgo/s" style="text;html=1;align=center;verticalAlign=middle;resizable=0;points=[];autosize=1;strokeColor=none;fillColor=none;" parent="1" vertex="1">
          <mxGeometry x="718" y="1426" width="110" height="30" as="geometry" />
        </mxCell>
        <mxCell id="wuaz71Ys6J9YfRkgNqtm-27" style="edgeStyle=orthogonalEdgeStyle;rounded=0;orthogonalLoop=1;jettySize=auto;html=1;entryX=0.5;entryY=0;entryDx=0;entryDy=0;" parent="1" source="wuaz71Ys6J9YfRkgNqtm-5" target="wuaz71Ys6J9YfRkgNqtm-26" edge="1">
          <mxGeometry relative="1" as="geometry">
            <Array as="points">
              <mxPoint x="1110" y="1785" />
            </Array>
          </mxGeometry>
        </mxCell>
        <mxCell id="wuaz71Ys6J9YfRkgNqtm-28" style="edgeStyle=orthogonalEdgeStyle;rounded=0;orthogonalLoop=1;jettySize=auto;html=1;entryX=0.5;entryY=0;entryDx=0;entryDy=0;" parent="1" source="wuaz71Ys6J9YfRkgNqtm-5" target="wuaz71Ys6J9YfRkgNqtm-11" edge="1">
          <mxGeometry relative="1" as="geometry">
            <Array as="points">
              <mxPoint x="887" y="1785" />
            </Array>
          </mxGeometry>
        </mxCell>
        <mxCell id="wuaz71Ys6J9YfRkgNqtm-5" value="¿Esta seguro?" style="rhombus;whiteSpace=wrap;html=1;" parent="1" vertex="1">
          <mxGeometry x="950" y="1740" width="100" height="90" as="geometry" />
        </mxCell>
        <mxCell id="wuaz71Ys6J9YfRkgNqtm-6" style="edgeStyle=orthogonalEdgeStyle;rounded=0;orthogonalLoop=1;jettySize=auto;html=1;entryX=0.5;entryY=0;entryDx=0;entryDy=0;" parent="1" source="wuaz71Ys6J9YfRkgNqtm-7" target="wuaz71Ys6J9YfRkgNqtm-5" edge="1">
          <mxGeometry relative="1" as="geometry" />
        </mxCell>
        <mxCell id="wuaz71Ys6J9YfRkgNqtm-7" value="Informar elementos a borrar" style="whiteSpace=wrap;html=1;" parent="1" vertex="1">
          <mxGeometry x="940" y="1638.5" width="120" height="60" as="geometry" />
        </mxCell>
        <mxCell id="wuaz71Ys6J9YfRkgNqtm-30" style="edgeStyle=orthogonalEdgeStyle;rounded=0;orthogonalLoop=1;jettySize=auto;html=1;endArrow=none;endFill=0;" parent="1" source="wuaz71Ys6J9YfRkgNqtm-11" edge="1">
          <mxGeometry relative="1" as="geometry">
            <mxPoint x="1110" y="1970" as="targetPoint" />
            <Array as="points">
              <mxPoint x="887" y="1970" />
            </Array>
          </mxGeometry>
        </mxCell>
        <mxCell id="wuaz71Ys6J9YfRkgNqtm-11" value="Eliminar riesgo" style="whiteSpace=wrap;html=1;" parent="1" vertex="1">
          <mxGeometry x="827" y="1855" width="120" height="60" as="geometry" />
        </mxCell>
        <mxCell id="wuaz71Ys6J9YfRkgNqtm-13" style="edgeStyle=orthogonalEdgeStyle;rounded=0;orthogonalLoop=1;jettySize=auto;html=1;" parent="1" source="wuaz71Ys6J9YfRkgNqtm-14" target="wuaz71Ys6J9YfRkgNqtm-7" edge="1">
          <mxGeometry relative="1" as="geometry" />
        </mxCell>
        <mxCell id="wuaz71Ys6J9YfRkgNqtm-14" value="Seleccionar riesgo/s" style="whiteSpace=wrap;html=1;" parent="1" vertex="1">
          <mxGeometry x="940" y="1536" width="120" height="60" as="geometry" />
        </mxCell>
        <mxCell id="wuaz71Ys6J9YfRkgNqtm-15" value="" style="rounded=0;orthogonalLoop=1;jettySize=auto;html=1;dashed=1;endArrow=none;endFill=0;" parent="1" source="wuaz71Ys6J9YfRkgNqtm-14" target="wuaz71Ys6J9YfRkgNqtm-16" edge="1">
          <mxGeometry relative="1" as="geometry">
            <mxPoint x="1153" y="1522" as="sourcePoint" />
          </mxGeometry>
        </mxCell>
        <mxCell id="wuaz71Ys6J9YfRkgNqtm-16" value="Se puede seleccionar&amp;nbsp;&lt;div&gt;uno o varios&amp;nbsp;&lt;/div&gt;&lt;div&gt;riesgos para eliminar&lt;/div&gt;" style="ellipse;shape=cloud;whiteSpace=wrap;html=1;" parent="1" vertex="1">
          <mxGeometry x="1120" y="1536" width="190" height="110" as="geometry" />
        </mxCell>
        <mxCell id="wuaz71Ys6J9YfRkgNqtm-22" style="edgeStyle=orthogonalEdgeStyle;rounded=0;orthogonalLoop=1;jettySize=auto;html=1;" parent="1" source="wuaz71Ys6J9YfRkgNqtm-19" target="wuaz71Ys6J9YfRkgNqtm-14" edge="1">
          <mxGeometry relative="1" as="geometry">
            <Array as="points">
              <mxPoint x="1000" y="1485" />
            </Array>
          </mxGeometry>
        </mxCell>
        <mxCell id="wuaz71Ys6J9YfRkgNqtm-24" style="edgeStyle=orthogonalEdgeStyle;rounded=0;orthogonalLoop=1;jettySize=auto;html=1;endArrow=none;endFill=0;" parent="1" source="wuaz71Ys6J9YfRkgNqtm-19" edge="1">
          <mxGeometry relative="1" as="geometry">
            <mxPoint x="670" y="1290" as="targetPoint" />
            <Array as="points">
              <mxPoint x="1500" y="1485" />
              <mxPoint x="1500" y="1290" />
            </Array>
          </mxGeometry>
        </mxCell>
        <mxCell id="wuaz71Ys6J9YfRkgNqtm-19" value="¿Es lider de proyecto?" style="rhombus;whiteSpace=wrap;html=1;" parent="1" vertex="1">
          <mxGeometry x="1026" y="1445" width="125" height="80" as="geometry" />
        </mxCell>
        <mxCell id="wuaz71Ys6J9YfRkgNqtm-20" value="Si" style="text;html=1;align=center;verticalAlign=middle;resizable=0;points=[];autosize=1;strokeColor=none;fillColor=none;" parent="1" vertex="1">
          <mxGeometry x="1000.5" y="1459" width="30" height="30" as="geometry" />
        </mxCell>
        <mxCell id="wuaz71Ys6J9YfRkgNqtm-21" value="No" style="text;html=1;align=center;verticalAlign=middle;resizable=0;points=[];autosize=1;strokeColor=none;fillColor=none;" parent="1" vertex="1">
          <mxGeometry x="1145.5" y="1459" width="40" height="30" as="geometry" />
        </mxCell>
        <mxCell id="wuaz71Ys6J9YfRkgNqtm-29" style="edgeStyle=orthogonalEdgeStyle;rounded=0;orthogonalLoop=1;jettySize=auto;html=1;endArrow=none;endFill=0;" parent="1" source="wuaz71Ys6J9YfRkgNqtm-26" edge="1">
          <mxGeometry relative="1" as="geometry">
            <mxPoint x="1500.0000000000005" y="1370" as="targetPoint" />
            <Array as="points">
              <mxPoint x="1110" y="1970" />
              <mxPoint x="1501" y="1970" />
              <mxPoint x="1501" y="1370" />
            </Array>
          </mxGeometry>
        </mxCell>
        <mxCell id="wuaz71Ys6J9YfRkgNqtm-26" value="Deseleccionar riesgo/s" style="whiteSpace=wrap;html=1;" parent="1" vertex="1">
          <mxGeometry x="1050" y="1855" width="120" height="60" as="geometry" />
        </mxCell>
        <mxCell id="wuaz71Ys6J9YfRkgNqtm-33" value="Añadir categoria de riesgo" style="text;html=1;align=center;verticalAlign=middle;resizable=0;points=[];autosize=1;strokeColor=none;fillColor=none;" parent="1" vertex="1">
          <mxGeometry x="-1590" y="2210" width="160" height="30" as="geometry" />
        </mxCell>
        <mxCell id="wuaz71Ys6J9YfRkgNqtm-34" value="" style="edgeStyle=orthogonalEdgeStyle;rounded=0;orthogonalLoop=1;jettySize=auto;html=1;" parent="1" source="wuaz71Ys6J9YfRkgNqtm-35" edge="1">
          <mxGeometry relative="1" as="geometry">
            <mxPoint x="-1265" y="2355" as="targetPoint" />
          </mxGeometry>
        </mxCell>
        <mxCell id="wuaz71Ys6J9YfRkgNqtm-35" value="Ingresar a añadir clasificación" style="whiteSpace=wrap;html=1;" parent="1" vertex="1">
          <mxGeometry x="-1325" y="2266" width="120" height="60" as="geometry" />
        </mxCell>
        <mxCell id="wuaz71Ys6J9YfRkgNqtm-36" style="edgeStyle=orthogonalEdgeStyle;rounded=0;orthogonalLoop=1;jettySize=auto;html=1;" parent="1" source="wuaz71Ys6J9YfRkgNqtm-37" target="wuaz71Ys6J9YfRkgNqtm-39" edge="1">
          <mxGeometry relative="1" as="geometry" />
        </mxCell>
        <mxCell id="wuaz71Ys6J9YfRkgNqtm-37" value="Cargar nombre de clasificacion." style="shape=parallelogram;perimeter=parallelogramPerimeter;whiteSpace=wrap;html=1;fixedSize=1;" parent="1" vertex="1">
          <mxGeometry x="-1370" y="2355" width="215" height="80" as="geometry" />
        </mxCell>
        <mxCell id="wuaz71Ys6J9YfRkgNqtm-38" style="edgeStyle=orthogonalEdgeStyle;rounded=0;orthogonalLoop=1;jettySize=auto;html=1;entryX=0.5;entryY=0;entryDx=0;entryDy=0;" parent="1" source="wuaz71Ys6J9YfRkgNqtm-39" edge="1">
          <mxGeometry relative="1" as="geometry">
            <Array as="points">
              <mxPoint x="-1357" y="2509" />
              <mxPoint x="-1357" y="2556" />
            </Array>
            <mxPoint x="-1357.5" y="2566" as="targetPoint" />
          </mxGeometry>
        </mxCell>
        <mxCell id="wuaz71Ys6J9YfRkgNqtm-52" style="edgeStyle=orthogonalEdgeStyle;rounded=0;orthogonalLoop=1;jettySize=auto;html=1;entryX=0.5;entryY=0;entryDx=0;entryDy=0;" parent="1" source="wuaz71Ys6J9YfRkgNqtm-39" target="wuaz71Ys6J9YfRkgNqtm-51" edge="1">
          <mxGeometry relative="1" as="geometry" />
        </mxCell>
        <mxCell id="wuaz71Ys6J9YfRkgNqtm-39" value="¿Confirma la nueva&amp;nbsp;&lt;div&gt;clasificación?&lt;/div&gt;" style="rhombus;whiteSpace=wrap;html=1;" parent="1" vertex="1">
          <mxGeometry x="-1325" y="2469" width="125" height="80" as="geometry" />
        </mxCell>
        <mxCell id="wuaz71Ys6J9YfRkgNqtm-40" value="Si" style="text;html=1;align=center;verticalAlign=middle;resizable=0;points=[];autosize=1;strokeColor=none;fillColor=none;" parent="1" vertex="1">
          <mxGeometry x="-1347.5" y="2475" width="30" height="30" as="geometry" />
        </mxCell>
        <mxCell id="wuaz71Ys6J9YfRkgNqtm-41" value="No" style="text;html=1;align=center;verticalAlign=middle;resizable=0;points=[];autosize=1;strokeColor=none;fillColor=none;" parent="1" vertex="1">
          <mxGeometry x="-1202.5" y="2475" width="40" height="30" as="geometry" />
        </mxCell>
        <mxCell id="wuaz71Ys6J9YfRkgNqtm-43" style="edgeStyle=orthogonalEdgeStyle;rounded=0;orthogonalLoop=1;jettySize=auto;html=1;entryX=0.5;entryY=0;entryDx=0;entryDy=0;exitX=0;exitY=0.5;exitDx=0;exitDy=0;" parent="1" source="wuaz71Ys6J9YfRkgNqtm-44" target="wuaz71Ys6J9YfRkgNqtm-35" edge="1">
          <mxGeometry relative="1" as="geometry">
            <Array as="points">
              <mxPoint x="-1510" y="2710" />
              <mxPoint x="-1510" y="2244" />
              <mxPoint x="-1265" y="2244" />
            </Array>
          </mxGeometry>
        </mxCell>
        <mxCell id="wuaz71Ys6J9YfRkgNqtm-58" style="edgeStyle=orthogonalEdgeStyle;rounded=0;orthogonalLoop=1;jettySize=auto;html=1;entryX=0.5;entryY=0;entryDx=0;entryDy=0;exitX=1;exitY=0.5;exitDx=0;exitDy=0;" parent="1" source="wuaz71Ys6J9YfRkgNqtm-44" target="wuaz71Ys6J9YfRkgNqtm-55" edge="1">
          <mxGeometry relative="1" as="geometry">
            <Array as="points">
              <mxPoint x="-1295" y="2710" />
              <mxPoint x="-900" y="2710" />
              <mxPoint x="-900" y="2070" />
              <mxPoint x="-535" y="2070" />
            </Array>
          </mxGeometry>
        </mxCell>
        <mxCell id="wuaz71Ys6J9YfRkgNqtm-44" value="¿Desea cargar otro?" style="rhombus;whiteSpace=wrap;html=1;" parent="1" vertex="1">
          <mxGeometry x="-1420" y="2671" width="125" height="80" as="geometry" />
        </mxCell>
        <mxCell id="wuaz71Ys6J9YfRkgNqtm-45" value="Si" style="text;html=1;align=center;verticalAlign=middle;resizable=0;points=[];autosize=1;strokeColor=none;fillColor=none;" parent="1" vertex="1">
          <mxGeometry x="-1450" y="2685" width="30" height="30" as="geometry" />
        </mxCell>
        <mxCell id="wuaz71Ys6J9YfRkgNqtm-46" value="No" style="text;html=1;align=center;verticalAlign=middle;resizable=0;points=[];autosize=1;strokeColor=none;fillColor=none;" parent="1" vertex="1">
          <mxGeometry x="-1300" y="2685" width="40" height="30" as="geometry" />
        </mxCell>
        <mxCell id="wuaz71Ys6J9YfRkgNqtm-47" style="edgeStyle=orthogonalEdgeStyle;rounded=0;orthogonalLoop=1;jettySize=auto;html=1;" parent="1" target="wuaz71Ys6J9YfRkgNqtm-44" edge="1">
          <mxGeometry relative="1" as="geometry">
            <mxPoint x="-1357.5" y="2626" as="sourcePoint" />
          </mxGeometry>
        </mxCell>
        <mxCell id="wuaz71Ys6J9YfRkgNqtm-50" value="Guardar clasificación" style="whiteSpace=wrap;html=1;" parent="1" vertex="1">
          <mxGeometry x="-1415" y="2565" width="120" height="60" as="geometry" />
        </mxCell>
        <mxCell id="wuaz71Ys6J9YfRkgNqtm-54" style="edgeStyle=orthogonalEdgeStyle;rounded=0;orthogonalLoop=1;jettySize=auto;html=1;endArrow=none;endFill=0;" parent="1" source="wuaz71Ys6J9YfRkgNqtm-51" edge="1">
          <mxGeometry relative="1" as="geometry">
            <mxPoint x="-1120" y="2710" as="targetPoint" />
          </mxGeometry>
        </mxCell>
        <mxCell id="wuaz71Ys6J9YfRkgNqtm-51" value="Descartar clasificación" style="whiteSpace=wrap;html=1;" parent="1" vertex="1">
          <mxGeometry x="-1180" y="2565" width="120" height="60" as="geometry" />
        </mxCell>
        <mxCell id="wuaz71Ys6J9YfRkgNqtm-56" style="edgeStyle=orthogonalEdgeStyle;rounded=0;orthogonalLoop=1;jettySize=auto;html=1;" parent="1" source="wuaz71Ys6J9YfRkgNqtm-55" target="wuaz71Ys6J9YfRkgNqtm-35" edge="1">
          <mxGeometry relative="1" as="geometry">
            <Array as="points">
              <mxPoint x="-535" y="2180" />
              <mxPoint x="-1265" y="2180" />
            </Array>
          </mxGeometry>
        </mxCell>
        <mxCell id="wuaz71Ys6J9YfRkgNqtm-91" style="edgeStyle=orthogonalEdgeStyle;rounded=0;orthogonalLoop=1;jettySize=auto;html=1;entryX=0.5;entryY=0;entryDx=0;entryDy=0;" parent="1" source="wuaz71Ys6J9YfRkgNqtm-55" target="wuaz71Ys6J9YfRkgNqtm-98" edge="1">
          <mxGeometry relative="1" as="geometry" />
        </mxCell>
        <mxCell id="wuaz71Ys6J9YfRkgNqtm-127" style="edgeStyle=orthogonalEdgeStyle;rounded=0;orthogonalLoop=1;jettySize=auto;html=1;entryX=0.5;entryY=0;entryDx=0;entryDy=0;" parent="1" source="wuaz71Ys6J9YfRkgNqtm-55" target="wuaz71Ys6J9YfRkgNqtm-123" edge="1">
          <mxGeometry relative="1" as="geometry">
            <Array as="points">
              <mxPoint x="-535" y="2180" />
              <mxPoint x="206" y="2180" />
              <mxPoint x="206" y="2246" />
            </Array>
          </mxGeometry>
        </mxCell>
        <mxCell id="wuaz71Ys6J9YfRkgNqtm-55" value="Ingresa a categorias de riesgo" style="whiteSpace=wrap;html=1;" parent="1" vertex="1">
          <mxGeometry x="-595" y="2090" width="120" height="60" as="geometry" />
        </mxCell>
        <mxCell id="wuaz71Ys6J9YfRkgNqtm-61" value="Modificar categoria de riesgo" style="text;html=1;align=center;verticalAlign=middle;resizable=0;points=[];autosize=1;strokeColor=none;fillColor=none;" parent="1" vertex="1">
          <mxGeometry x="-831" y="2214" width="180" height="30" as="geometry" />
        </mxCell>
        <mxCell id="wuaz71Ys6J9YfRkgNqtm-62" style="edgeStyle=orthogonalEdgeStyle;rounded=0;orthogonalLoop=1;jettySize=auto;html=1;" parent="1" source="wuaz71Ys6J9YfRkgNqtm-63" edge="1">
          <mxGeometry relative="1" as="geometry">
            <mxPoint x="-606" y="2410" as="targetPoint" />
          </mxGeometry>
        </mxCell>
        <mxCell id="wuaz71Ys6J9YfRkgNqtm-63" value="Modificar clasificacion&lt;div&gt;de riesgo&lt;/div&gt;" style="whiteSpace=wrap;html=1;" parent="1" vertex="1">
          <mxGeometry x="-666" y="2320" width="120" height="60" as="geometry" />
        </mxCell>
        <mxCell id="wuaz71Ys6J9YfRkgNqtm-64" value="Eliminar clasificación" style="text;html=1;align=center;verticalAlign=middle;resizable=0;points=[];autosize=1;strokeColor=none;fillColor=none;" parent="1" vertex="1">
          <mxGeometry x="-164.5" y="2214" width="130" height="30" as="geometry" />
        </mxCell>
        <mxCell id="wuaz71Ys6J9YfRkgNqtm-128" style="edgeStyle=orthogonalEdgeStyle;rounded=0;orthogonalLoop=1;jettySize=auto;html=1;entryX=0.5;entryY=0;entryDx=0;entryDy=0;" parent="1" source="wuaz71Ys6J9YfRkgNqtm-65" target="wuaz71Ys6J9YfRkgNqtm-71" edge="1">
          <mxGeometry relative="1" as="geometry">
            <Array as="points">
              <mxPoint x="-54" y="2530" />
              <mxPoint x="-54" y="2559" />
              <mxPoint x="-54" y="2559" />
            </Array>
          </mxGeometry>
        </mxCell>
        <mxCell id="wuaz71Ys6J9YfRkgNqtm-130" style="edgeStyle=orthogonalEdgeStyle;rounded=0;orthogonalLoop=1;jettySize=auto;html=1;entryX=0.5;entryY=0;entryDx=0;entryDy=0;" parent="1" source="wuaz71Ys6J9YfRkgNqtm-65" target="wuaz71Ys6J9YfRkgNqtm-129" edge="1">
          <mxGeometry relative="1" as="geometry" />
        </mxCell>
        <mxCell id="wuaz71Ys6J9YfRkgNqtm-65" value="¿Esta seguro?" style="rhombus;whiteSpace=wrap;html=1;" parent="1" vertex="1">
          <mxGeometry x="5.5" y="2484" width="100" height="90" as="geometry" />
        </mxCell>
        <mxCell id="wuaz71Ys6J9YfRkgNqtm-66" style="edgeStyle=orthogonalEdgeStyle;rounded=0;orthogonalLoop=1;jettySize=auto;html=1;entryX=0.5;entryY=0;entryDx=0;entryDy=0;" parent="1" source="wuaz71Ys6J9YfRkgNqtm-67" target="wuaz71Ys6J9YfRkgNqtm-65" edge="1">
          <mxGeometry relative="1" as="geometry" />
        </mxCell>
        <mxCell id="wuaz71Ys6J9YfRkgNqtm-67" value="Informar elementos a borrar" style="whiteSpace=wrap;html=1;" parent="1" vertex="1">
          <mxGeometry x="-4.5" y="2400" width="120" height="60" as="geometry" />
        </mxCell>
        <mxCell id="wuaz71Ys6J9YfRkgNqtm-70" value="" style="edgeStyle=orthogonalEdgeStyle;rounded=0;orthogonalLoop=1;jettySize=auto;html=1;" parent="1" source="wuaz71Ys6J9YfRkgNqtm-71" target="wuaz71Ys6J9YfRkgNqtm-88" edge="1">
          <mxGeometry relative="1" as="geometry" />
        </mxCell>
        <mxCell id="wuaz71Ys6J9YfRkgNqtm-71" value="Seleccione clasificacion de reemplazo" style="whiteSpace=wrap;html=1;" parent="1" vertex="1">
          <mxGeometry x="-114.5" y="2579" width="120" height="60" as="geometry" />
        </mxCell>
        <mxCell id="wuaz71Ys6J9YfRkgNqtm-73" style="edgeStyle=orthogonalEdgeStyle;rounded=0;orthogonalLoop=1;jettySize=auto;html=1;" parent="1" source="wuaz71Ys6J9YfRkgNqtm-74" target="wuaz71Ys6J9YfRkgNqtm-67" edge="1">
          <mxGeometry relative="1" as="geometry" />
        </mxCell>
        <mxCell id="wuaz71Ys6J9YfRkgNqtm-74" value="Seleccionar clasificacion" style="whiteSpace=wrap;html=1;" parent="1" vertex="1">
          <mxGeometry x="-4.5" y="2310" width="120" height="60" as="geometry" />
        </mxCell>
        <mxCell id="wuaz71Ys6J9YfRkgNqtm-78" style="edgeStyle=orthogonalEdgeStyle;rounded=0;orthogonalLoop=1;jettySize=auto;html=1;entryX=0.5;entryY=0;entryDx=0;entryDy=0;" parent="1" source="wuaz71Ys6J9YfRkgNqtm-79" target="wuaz71Ys6J9YfRkgNqtm-82" edge="1">
          <mxGeometry relative="1" as="geometry" />
        </mxCell>
        <mxCell id="wuaz71Ys6J9YfRkgNqtm-79" value="&lt;div&gt;Actualizar nombre&lt;/div&gt;" style="shape=parallelogram;perimeter=parallelogramPerimeter;whiteSpace=wrap;html=1;fixedSize=1;" parent="1" vertex="1">
          <mxGeometry x="-706" y="2410" width="215" height="80" as="geometry" />
        </mxCell>
        <mxCell id="wuaz71Ys6J9YfRkgNqtm-80" style="edgeStyle=orthogonalEdgeStyle;rounded=0;orthogonalLoop=1;jettySize=auto;html=1;entryX=0.5;entryY=0;entryDx=0;entryDy=0;" parent="1" source="wuaz71Ys6J9YfRkgNqtm-82" target="wuaz71Ys6J9YfRkgNqtm-84" edge="1">
          <mxGeometry relative="1" as="geometry" />
        </mxCell>
        <mxCell id="wuaz71Ys6J9YfRkgNqtm-93" style="edgeStyle=orthogonalEdgeStyle;rounded=0;orthogonalLoop=1;jettySize=auto;html=1;entryX=0.5;entryY=0;entryDx=0;entryDy=0;" parent="1" source="wuaz71Ys6J9YfRkgNqtm-82" target="wuaz71Ys6J9YfRkgNqtm-92" edge="1">
          <mxGeometry relative="1" as="geometry">
            <Array as="points">
              <mxPoint x="-476" y="2555" />
            </Array>
          </mxGeometry>
        </mxCell>
        <mxCell id="wuaz71Ys6J9YfRkgNqtm-82" value="¿Confirma cambios?" style="rhombus;whiteSpace=wrap;html=1;" parent="1" vertex="1">
          <mxGeometry x="-661" y="2515" width="125" height="80" as="geometry" />
        </mxCell>
        <mxCell id="wuaz71Ys6J9YfRkgNqtm-94" style="edgeStyle=orthogonalEdgeStyle;rounded=0;orthogonalLoop=1;jettySize=auto;html=1;endArrow=none;endFill=0;exitX=0.5;exitY=1;exitDx=0;exitDy=0;" parent="1" source="wuaz71Ys6J9YfRkgNqtm-84" edge="1">
          <mxGeometry relative="1" as="geometry">
            <mxPoint x="-900" y="2650" as="targetPoint" />
            <Array as="points">
              <mxPoint x="-726" y="2710" />
              <mxPoint x="-900" y="2710" />
            </Array>
          </mxGeometry>
        </mxCell>
        <mxCell id="wuaz71Ys6J9YfRkgNqtm-84" value="Actualizar clasificacion" style="whiteSpace=wrap;html=1;" parent="1" vertex="1">
          <mxGeometry x="-786" y="2615" width="120" height="60" as="geometry" />
        </mxCell>
        <mxCell id="wuaz71Ys6J9YfRkgNqtm-85" value="Si" style="text;html=1;align=center;verticalAlign=middle;resizable=0;points=[];autosize=1;strokeColor=none;fillColor=none;" parent="1" vertex="1">
          <mxGeometry x="-691" y="2530" width="30" height="30" as="geometry" />
        </mxCell>
        <mxCell id="wuaz71Ys6J9YfRkgNqtm-86" value="No" style="text;html=1;align=center;verticalAlign=middle;resizable=0;points=[];autosize=1;strokeColor=none;fillColor=none;" parent="1" vertex="1">
          <mxGeometry x="-546" y="2530" width="40" height="30" as="geometry" />
        </mxCell>
        <mxCell id="wuaz71Ys6J9YfRkgNqtm-132" style="edgeStyle=orthogonalEdgeStyle;rounded=0;orthogonalLoop=1;jettySize=auto;html=1;endArrow=none;endFill=0;" parent="1" source="wuaz71Ys6J9YfRkgNqtm-88" edge="1">
          <mxGeometry relative="1" as="geometry">
            <mxPoint x="186" y="2766" as="targetPoint" />
            <mxPoint x="-54.488372093023145" y="2729" as="sourcePoint" />
            <Array as="points">
              <mxPoint x="-54" y="2766" />
            </Array>
          </mxGeometry>
        </mxCell>
        <mxCell id="wuaz71Ys6J9YfRkgNqtm-88" value="Eliminar clasificacion" style="whiteSpace=wrap;html=1;" parent="1" vertex="1">
          <mxGeometry x="-114.5" y="2663" width="120" height="60" as="geometry" />
        </mxCell>
        <mxCell id="wuaz71Ys6J9YfRkgNqtm-95" style="edgeStyle=orthogonalEdgeStyle;rounded=0;orthogonalLoop=1;jettySize=auto;html=1;endArrow=none;endFill=0;" parent="1" source="wuaz71Ys6J9YfRkgNqtm-92" edge="1">
          <mxGeometry relative="1" as="geometry">
            <mxPoint x="-750" y="2710" as="targetPoint" />
            <Array as="points">
              <mxPoint x="-476" y="2710" />
            </Array>
          </mxGeometry>
        </mxCell>
        <mxCell id="wuaz71Ys6J9YfRkgNqtm-92" value="Descartar clasificación" style="whiteSpace=wrap;html=1;" parent="1" vertex="1">
          <mxGeometry x="-536" y="2615" width="120" height="56" as="geometry" />
        </mxCell>
        <mxCell id="wuaz71Ys6J9YfRkgNqtm-96" value="Si" style="text;html=1;align=center;verticalAlign=middle;resizable=0;points=[];autosize=1;strokeColor=none;fillColor=none;" parent="1" vertex="1">
          <mxGeometry x="907.5" y="1754" width="30" height="30" as="geometry" />
        </mxCell>
        <mxCell id="wuaz71Ys6J9YfRkgNqtm-97" value="No" style="text;html=1;align=center;verticalAlign=middle;resizable=0;points=[];autosize=1;strokeColor=none;fillColor=none;" parent="1" vertex="1">
          <mxGeometry x="1052.5" y="1754" width="40" height="30" as="geometry" />
        </mxCell>
        <mxCell id="wuaz71Ys6J9YfRkgNqtm-101" style="edgeStyle=orthogonalEdgeStyle;rounded=0;orthogonalLoop=1;jettySize=auto;html=1;entryX=0.5;entryY=0;entryDx=0;entryDy=0;" parent="1" source="wuaz71Ys6J9YfRkgNqtm-98" target="wuaz71Ys6J9YfRkgNqtm-63" edge="1">
          <mxGeometry relative="1" as="geometry">
            <Array as="points">
              <mxPoint x="-606" y="2270" />
            </Array>
          </mxGeometry>
        </mxCell>
        <mxCell id="wuaz71Ys6J9YfRkgNqtm-102" style="edgeStyle=orthogonalEdgeStyle;rounded=0;orthogonalLoop=1;jettySize=auto;html=1;entryX=0.5;entryY=0;entryDx=0;entryDy=0;" parent="1" source="wuaz71Ys6J9YfRkgNqtm-98" target="wuaz71Ys6J9YfRkgNqtm-55" edge="1">
          <mxGeometry relative="1" as="geometry">
            <Array as="points">
              <mxPoint x="-220" y="2270" />
              <mxPoint x="-220" y="2070" />
              <mxPoint x="-535" y="2070" />
            </Array>
          </mxGeometry>
        </mxCell>
        <mxCell id="wuaz71Ys6J9YfRkgNqtm-98" value="¿Es lider de proyecto?" style="rhombus;whiteSpace=wrap;html=1;" parent="1" vertex="1">
          <mxGeometry x="-597.5" y="2230" width="125" height="80" as="geometry" />
        </mxCell>
        <mxCell id="wuaz71Ys6J9YfRkgNqtm-99" value="Si" style="text;html=1;align=center;verticalAlign=middle;resizable=0;points=[];autosize=1;strokeColor=none;fillColor=none;" parent="1" vertex="1">
          <mxGeometry x="-622" y="2244" width="30" height="30" as="geometry" />
        </mxCell>
        <mxCell id="wuaz71Ys6J9YfRkgNqtm-100" value="No" style="text;html=1;align=center;verticalAlign=middle;resizable=0;points=[];autosize=1;strokeColor=none;fillColor=none;" parent="1" vertex="1">
          <mxGeometry x="-477" y="2244" width="40" height="30" as="geometry" />
        </mxCell>
        <mxCell id="wuaz71Ys6J9YfRkgNqtm-121" style="edgeStyle=orthogonalEdgeStyle;rounded=0;orthogonalLoop=1;jettySize=auto;html=1;entryX=0.5;entryY=0;entryDx=0;entryDy=0;exitX=0;exitY=0.5;exitDx=0;exitDy=0;" parent="1" source="wuaz71Ys6J9YfRkgNqtm-123" target="wuaz71Ys6J9YfRkgNqtm-74" edge="1">
          <mxGeometry relative="1" as="geometry">
            <mxPoint x="131.5" y="2299.97" as="targetPoint" />
            <Array as="points">
              <mxPoint x="56" y="2286" />
              <mxPoint x="56" y="2300" />
              <mxPoint x="56" y="2300" />
            </Array>
          </mxGeometry>
        </mxCell>
        <mxCell id="wuaz71Ys6J9YfRkgNqtm-122" style="edgeStyle=orthogonalEdgeStyle;rounded=0;orthogonalLoop=1;jettySize=auto;html=1;endArrow=none;endFill=0;exitX=1;exitY=0.5;exitDx=0;exitDy=0;" parent="1" source="wuaz71Ys6J9YfRkgNqtm-123" edge="1">
          <mxGeometry relative="1" as="geometry">
            <mxPoint x="-250" y="2070" as="targetPoint" />
            <Array as="points">
              <mxPoint x="360" y="2286" />
              <mxPoint x="360" y="2070" />
            </Array>
            <mxPoint x="270" y="2286" as="sourcePoint" />
          </mxGeometry>
        </mxCell>
        <mxCell id="wuaz71Ys6J9YfRkgNqtm-123" value="¿Es lider de proyecto?" style="rhombus;whiteSpace=wrap;html=1;" parent="1" vertex="1">
          <mxGeometry x="143" y="2246" width="125" height="80" as="geometry" />
        </mxCell>
        <mxCell id="wuaz71Ys6J9YfRkgNqtm-124" value="Si" style="text;html=1;align=center;verticalAlign=middle;resizable=0;points=[];autosize=1;strokeColor=none;fillColor=none;" parent="1" vertex="1">
          <mxGeometry x="115.5" y="2255" width="30" height="30" as="geometry" />
        </mxCell>
        <mxCell id="wuaz71Ys6J9YfRkgNqtm-125" value="No" style="text;html=1;align=center;verticalAlign=middle;resizable=0;points=[];autosize=1;strokeColor=none;fillColor=none;" parent="1" vertex="1">
          <mxGeometry x="275.5" y="2255" width="40" height="30" as="geometry" />
        </mxCell>
        <mxCell id="wuaz71Ys6J9YfRkgNqtm-133" style="edgeStyle=orthogonalEdgeStyle;rounded=0;orthogonalLoop=1;jettySize=auto;html=1;endArrow=none;endFill=0;" parent="1" edge="1">
          <mxGeometry relative="1" as="geometry">
            <mxPoint x="360" y="2286" as="targetPoint" />
            <mxPoint x="186" y="2645" as="sourcePoint" />
            <Array as="points">
              <mxPoint x="186" y="2766" />
              <mxPoint x="360" y="2766" />
              <mxPoint x="360" y="2296" />
            </Array>
          </mxGeometry>
        </mxCell>
        <mxCell id="wuaz71Ys6J9YfRkgNqtm-129" value="Descartar eliminación" style="whiteSpace=wrap;html=1;" parent="1" vertex="1">
          <mxGeometry x="126" y="2579" width="120" height="60" as="geometry" />
        </mxCell>
        <mxCell id="0iyKYwHK2RuOoZLVOAF2-23" style="edgeStyle=orthogonalEdgeStyle;rounded=0;orthogonalLoop=1;jettySize=auto;html=1;entryX=0.5;entryY=0;entryDx=0;entryDy=0;" parent="1" source="0iyKYwHK2RuOoZLVOAF2-1" target="0iyKYwHK2RuOoZLVOAF2-17" edge="1">
          <mxGeometry relative="1" as="geometry" />
        </mxCell>
        <mxCell id="0iyKYwHK2RuOoZLVOAF2-57" style="edgeStyle=orthogonalEdgeStyle;rounded=0;orthogonalLoop=1;jettySize=auto;html=1;entryX=0.5;entryY=0;entryDx=0;entryDy=0;" parent="1" source="0iyKYwHK2RuOoZLVOAF2-1" target="0iyKYwHK2RuOoZLVOAF2-44" edge="1">
          <mxGeometry relative="1" as="geometry">
            <Array as="points">
              <mxPoint x="922" y="2230" />
              <mxPoint x="1626" y="2230" />
            </Array>
          </mxGeometry>
        </mxCell>
        <mxCell id="0iyKYwHK2RuOoZLVOAF2-79" style="edgeStyle=orthogonalEdgeStyle;rounded=0;orthogonalLoop=1;jettySize=auto;html=1;entryX=0.5;entryY=0;entryDx=0;entryDy=0;" parent="1" source="0iyKYwHK2RuOoZLVOAF2-1" target="0iyKYwHK2RuOoZLVOAF2-68" edge="1">
          <mxGeometry relative="1" as="geometry">
            <Array as="points">
              <mxPoint x="923" y="2230" />
              <mxPoint x="2296" y="2230" />
            </Array>
          </mxGeometry>
        </mxCell>
        <mxCell id="vgDRt3HnfkzPyJ0p5jBW-23" style="edgeStyle=orthogonalEdgeStyle;rounded=0;orthogonalLoop=1;jettySize=auto;html=1;entryX=0.5;entryY=0;entryDx=0;entryDy=0;" edge="1" parent="1" source="0iyKYwHK2RuOoZLVOAF2-1" target="0iyKYwHK2RuOoZLVOAF2-134">
          <mxGeometry relative="1" as="geometry">
            <Array as="points">
              <mxPoint x="923" y="2230" />
              <mxPoint x="470" y="2230" />
              <mxPoint x="470" y="3080" />
              <mxPoint x="-26" y="3080" />
            </Array>
          </mxGeometry>
        </mxCell>
        <mxCell id="vgDRt3HnfkzPyJ0p5jBW-48" style="edgeStyle=orthogonalEdgeStyle;rounded=0;orthogonalLoop=1;jettySize=auto;html=1;entryX=0.5;entryY=0;entryDx=0;entryDy=0;" edge="1" parent="1" source="0iyKYwHK2RuOoZLVOAF2-1" target="vgDRt3HnfkzPyJ0p5jBW-44">
          <mxGeometry relative="1" as="geometry">
            <Array as="points">
              <mxPoint x="923" y="2230" />
              <mxPoint x="470" y="2230" />
              <mxPoint x="470" y="3080" />
              <mxPoint x="748" y="3080" />
            </Array>
          </mxGeometry>
        </mxCell>
        <mxCell id="0iyKYwHK2RuOoZLVOAF2-1" value="Ingresa a un riesgo" style="whiteSpace=wrap;html=1;" parent="1" vertex="1">
          <mxGeometry x="862.5" y="2150" width="120" height="60" as="geometry" />
        </mxCell>
        <mxCell id="0iyKYwHK2RuOoZLVOAF2-4" value="Añadir evaluación de riesgo" style="text;html=1;align=center;verticalAlign=middle;resizable=0;points=[];autosize=1;strokeColor=none;fillColor=none;" parent="1" vertex="1">
          <mxGeometry x="558" y="2257" width="170" height="30" as="geometry" />
        </mxCell>
        <mxCell id="0iyKYwHK2RuOoZLVOAF2-5" style="edgeStyle=orthogonalEdgeStyle;rounded=0;orthogonalLoop=1;jettySize=auto;html=1;entryX=0.5;entryY=0;entryDx=0;entryDy=0;" parent="1" source="0iyKYwHK2RuOoZLVOAF2-7" target="0iyKYwHK2RuOoZLVOAF2-20" edge="1">
          <mxGeometry relative="1" as="geometry">
            <Array as="points">
              <mxPoint x="945" y="2616" />
            </Array>
          </mxGeometry>
        </mxCell>
        <mxCell id="0iyKYwHK2RuOoZLVOAF2-6" style="edgeStyle=orthogonalEdgeStyle;rounded=0;orthogonalLoop=1;jettySize=auto;html=1;entryX=0.5;entryY=0;entryDx=0;entryDy=0;" parent="1" source="0iyKYwHK2RuOoZLVOAF2-7" target="0iyKYwHK2RuOoZLVOAF2-11" edge="1">
          <mxGeometry relative="1" as="geometry">
            <Array as="points">
              <mxPoint x="722" y="2616" />
            </Array>
          </mxGeometry>
        </mxCell>
        <mxCell id="0iyKYwHK2RuOoZLVOAF2-7" value="¿Esta seguro?" style="rhombus;whiteSpace=wrap;html=1;" parent="1" vertex="1">
          <mxGeometry x="785" y="2571" width="100" height="90" as="geometry" />
        </mxCell>
        <mxCell id="0iyKYwHK2RuOoZLVOAF2-8" style="edgeStyle=orthogonalEdgeStyle;rounded=0;orthogonalLoop=1;jettySize=auto;html=1;entryX=0.5;entryY=0;entryDx=0;entryDy=0;" parent="1" target="0iyKYwHK2RuOoZLVOAF2-7" edge="1">
          <mxGeometry relative="1" as="geometry">
            <mxPoint x="835" y="2529.5" as="sourcePoint" />
          </mxGeometry>
        </mxCell>
        <mxCell id="0iyKYwHK2RuOoZLVOAF2-26" value="" style="edgeStyle=orthogonalEdgeStyle;rounded=0;orthogonalLoop=1;jettySize=auto;html=1;" parent="1" source="0iyKYwHK2RuOoZLVOAF2-11" target="0iyKYwHK2RuOoZLVOAF2-25" edge="1">
          <mxGeometry relative="1" as="geometry" />
        </mxCell>
        <mxCell id="0iyKYwHK2RuOoZLVOAF2-11" value="Añadir evaluación" style="whiteSpace=wrap;html=1;" parent="1" vertex="1">
          <mxGeometry x="662" y="2686" width="120" height="60" as="geometry" />
        </mxCell>
        <mxCell id="0iyKYwHK2RuOoZLVOAF2-12" style="edgeStyle=orthogonalEdgeStyle;rounded=0;orthogonalLoop=1;jettySize=auto;html=1;" parent="1" source="0iyKYwHK2RuOoZLVOAF2-13" edge="1">
          <mxGeometry relative="1" as="geometry">
            <mxPoint x="835" y="2469.5" as="targetPoint" />
          </mxGeometry>
        </mxCell>
        <mxCell id="0iyKYwHK2RuOoZLVOAF2-13" value="Ingresar a añadir evaluacion de riesgo" style="whiteSpace=wrap;html=1;" parent="1" vertex="1">
          <mxGeometry x="775" y="2367" width="120" height="60" as="geometry" />
        </mxCell>
        <mxCell id="0iyKYwHK2RuOoZLVOAF2-16" style="edgeStyle=orthogonalEdgeStyle;rounded=0;orthogonalLoop=1;jettySize=auto;html=1;" parent="1" source="0iyKYwHK2RuOoZLVOAF2-17" target="0iyKYwHK2RuOoZLVOAF2-13" edge="1">
          <mxGeometry relative="1" as="geometry">
            <Array as="points">
              <mxPoint x="835" y="2316" />
            </Array>
          </mxGeometry>
        </mxCell>
        <mxCell id="0iyKYwHK2RuOoZLVOAF2-30" style="edgeStyle=orthogonalEdgeStyle;rounded=0;orthogonalLoop=1;jettySize=auto;html=1;entryX=0.5;entryY=0;entryDx=0;entryDy=0;" parent="1" source="0iyKYwHK2RuOoZLVOAF2-17" target="0iyKYwHK2RuOoZLVOAF2-29" edge="1">
          <mxGeometry relative="1" as="geometry" />
        </mxCell>
        <mxCell id="0iyKYwHK2RuOoZLVOAF2-17" value="¿Es el responsable&lt;div&gt;&amp;nbsp;del riesgo?&lt;/div&gt;" style="rhombus;whiteSpace=wrap;html=1;" parent="1" vertex="1">
          <mxGeometry x="861" y="2276" width="125" height="80" as="geometry" />
        </mxCell>
        <mxCell id="0iyKYwHK2RuOoZLVOAF2-18" value="Si" style="text;html=1;align=center;verticalAlign=middle;resizable=0;points=[];autosize=1;strokeColor=none;fillColor=none;" parent="1" vertex="1">
          <mxGeometry x="835.5" y="2290" width="30" height="30" as="geometry" />
        </mxCell>
        <mxCell id="0iyKYwHK2RuOoZLVOAF2-19" value="No" style="text;html=1;align=center;verticalAlign=middle;resizable=0;points=[];autosize=1;strokeColor=none;fillColor=none;" parent="1" vertex="1">
          <mxGeometry x="980.5" y="2290" width="40" height="30" as="geometry" />
        </mxCell>
        <mxCell id="0iyKYwHK2RuOoZLVOAF2-28" style="edgeStyle=orthogonalEdgeStyle;rounded=0;orthogonalLoop=1;jettySize=auto;html=1;endArrow=none;endFill=0;" parent="1" source="0iyKYwHK2RuOoZLVOAF2-20" edge="1">
          <mxGeometry relative="1" as="geometry">
            <mxPoint x="945" y="2880" as="targetPoint" />
          </mxGeometry>
        </mxCell>
        <mxCell id="0iyKYwHK2RuOoZLVOAF2-20" value="Descartar evaluación" style="whiteSpace=wrap;html=1;" parent="1" vertex="1">
          <mxGeometry x="885" y="2686" width="120" height="60" as="geometry" />
        </mxCell>
        <mxCell id="0iyKYwHK2RuOoZLVOAF2-21" value="Si" style="text;html=1;align=center;verticalAlign=middle;resizable=0;points=[];autosize=1;strokeColor=none;fillColor=none;" parent="1" vertex="1">
          <mxGeometry x="742.5" y="2585" width="30" height="30" as="geometry" />
        </mxCell>
        <mxCell id="0iyKYwHK2RuOoZLVOAF2-22" value="No" style="text;html=1;align=center;verticalAlign=middle;resizable=0;points=[];autosize=1;strokeColor=none;fillColor=none;" parent="1" vertex="1">
          <mxGeometry x="887.5" y="2585" width="40" height="30" as="geometry" />
        </mxCell>
        <mxCell id="0iyKYwHK2RuOoZLVOAF2-24" value="Ingresar evaluacion&amp;nbsp;&lt;div&gt;y justificacion&lt;/div&gt;" style="shape=parallelogram;perimeter=parallelogramPerimeter;whiteSpace=wrap;html=1;fixedSize=1;" parent="1" vertex="1">
          <mxGeometry x="757.5" y="2469" width="155" height="61" as="geometry" />
        </mxCell>
        <mxCell id="0iyKYwHK2RuOoZLVOAF2-27" style="edgeStyle=orthogonalEdgeStyle;rounded=0;orthogonalLoop=1;jettySize=auto;html=1;entryX=0.5;entryY=0;entryDx=0;entryDy=0;" parent="1" source="0iyKYwHK2RuOoZLVOAF2-25" target="0iyKYwHK2RuOoZLVOAF2-1" edge="1">
          <mxGeometry relative="1" as="geometry">
            <Array as="points">
              <mxPoint x="722" y="2880" />
              <mxPoint x="1210" y="2880" />
              <mxPoint x="1210" y="2130" />
              <mxPoint x="923" y="2130" />
            </Array>
          </mxGeometry>
        </mxCell>
        <mxCell id="0iyKYwHK2RuOoZLVOAF2-25" value="Modificar evaluación anterior" style="whiteSpace=wrap;html=1;" parent="1" vertex="1">
          <mxGeometry x="662" y="2770" width="120" height="60" as="geometry" />
        </mxCell>
        <mxCell id="0iyKYwHK2RuOoZLVOAF2-31" style="edgeStyle=orthogonalEdgeStyle;rounded=0;orthogonalLoop=1;jettySize=auto;html=1;endArrow=none;endFill=0;" parent="1" source="0iyKYwHK2RuOoZLVOAF2-29" edge="1">
          <mxGeometry relative="1" as="geometry">
            <mxPoint x="1210" y="2470" as="targetPoint" />
            <Array as="points">
              <mxPoint x="1060" y="2470" />
            </Array>
          </mxGeometry>
        </mxCell>
        <mxCell id="0iyKYwHK2RuOoZLVOAF2-29" value="Visualizar evaluaciones" style="whiteSpace=wrap;html=1;" parent="1" vertex="1">
          <mxGeometry x="1000" y="2365" width="120" height="60" as="geometry" />
        </mxCell>
        <mxCell id="0iyKYwHK2RuOoZLVOAF2-33" value="Modificar evaluación de riesgo" style="text;html=1;align=center;verticalAlign=middle;resizable=0;points=[];autosize=1;strokeColor=none;fillColor=none;" parent="1" vertex="1">
          <mxGeometry x="1250" y="2257" width="190" height="30" as="geometry" />
        </mxCell>
        <mxCell id="0iyKYwHK2RuOoZLVOAF2-34" style="edgeStyle=orthogonalEdgeStyle;rounded=0;orthogonalLoop=1;jettySize=auto;html=1;entryX=0.5;entryY=0;entryDx=0;entryDy=0;" parent="1" source="0iyKYwHK2RuOoZLVOAF2-36" target="0iyKYwHK2RuOoZLVOAF2-48" edge="1">
          <mxGeometry relative="1" as="geometry">
            <Array as="points">
              <mxPoint x="1647" y="2616" />
            </Array>
          </mxGeometry>
        </mxCell>
        <mxCell id="0iyKYwHK2RuOoZLVOAF2-35" style="edgeStyle=orthogonalEdgeStyle;rounded=0;orthogonalLoop=1;jettySize=auto;html=1;entryX=0.5;entryY=0;entryDx=0;entryDy=0;" parent="1" source="0iyKYwHK2RuOoZLVOAF2-36" target="0iyKYwHK2RuOoZLVOAF2-39" edge="1">
          <mxGeometry relative="1" as="geometry">
            <Array as="points">
              <mxPoint x="1424" y="2616" />
            </Array>
          </mxGeometry>
        </mxCell>
        <mxCell id="0iyKYwHK2RuOoZLVOAF2-36" value="¿Esta seguro?" style="rhombus;whiteSpace=wrap;html=1;" parent="1" vertex="1">
          <mxGeometry x="1487" y="2571" width="100" height="90" as="geometry" />
        </mxCell>
        <mxCell id="0iyKYwHK2RuOoZLVOAF2-37" style="edgeStyle=orthogonalEdgeStyle;rounded=0;orthogonalLoop=1;jettySize=auto;html=1;entryX=0.5;entryY=0;entryDx=0;entryDy=0;" parent="1" target="0iyKYwHK2RuOoZLVOAF2-36" edge="1">
          <mxGeometry relative="1" as="geometry">
            <mxPoint x="1537" y="2529.5" as="sourcePoint" />
          </mxGeometry>
        </mxCell>
        <mxCell id="0iyKYwHK2RuOoZLVOAF2-55" style="edgeStyle=orthogonalEdgeStyle;rounded=0;orthogonalLoop=1;jettySize=auto;html=1;endArrow=none;endFill=0;" parent="1" source="0iyKYwHK2RuOoZLVOAF2-39" edge="1">
          <mxGeometry relative="1" as="geometry">
            <mxPoint x="1210" y="2880.0000000000005" as="targetPoint" />
            <Array as="points">
              <mxPoint x="1424" y="2880" />
            </Array>
          </mxGeometry>
        </mxCell>
        <mxCell id="0iyKYwHK2RuOoZLVOAF2-39" value="Modificar evaluacion" style="whiteSpace=wrap;html=1;" parent="1" vertex="1">
          <mxGeometry x="1364" y="2686" width="120" height="60" as="geometry" />
        </mxCell>
        <mxCell id="0iyKYwHK2RuOoZLVOAF2-40" style="edgeStyle=orthogonalEdgeStyle;rounded=0;orthogonalLoop=1;jettySize=auto;html=1;" parent="1" source="0iyKYwHK2RuOoZLVOAF2-41" edge="1">
          <mxGeometry relative="1" as="geometry">
            <mxPoint x="1537" y="2469.5" as="targetPoint" />
          </mxGeometry>
        </mxCell>
        <mxCell id="0iyKYwHK2RuOoZLVOAF2-41" value="Ingresar a modificar evaluación de riesgo" style="whiteSpace=wrap;html=1;" parent="1" vertex="1">
          <mxGeometry x="1477" y="2367" width="120" height="60" as="geometry" />
        </mxCell>
        <mxCell id="0iyKYwHK2RuOoZLVOAF2-42" style="edgeStyle=orthogonalEdgeStyle;rounded=0;orthogonalLoop=1;jettySize=auto;html=1;" parent="1" source="0iyKYwHK2RuOoZLVOAF2-44" target="0iyKYwHK2RuOoZLVOAF2-41" edge="1">
          <mxGeometry relative="1" as="geometry">
            <Array as="points">
              <mxPoint x="1537" y="2316" />
            </Array>
          </mxGeometry>
        </mxCell>
        <mxCell id="0iyKYwHK2RuOoZLVOAF2-56" style="edgeStyle=orthogonalEdgeStyle;rounded=0;orthogonalLoop=1;jettySize=auto;html=1;entryX=0.5;entryY=0;entryDx=0;entryDy=0;" parent="1" source="0iyKYwHK2RuOoZLVOAF2-44" target="0iyKYwHK2RuOoZLVOAF2-1" edge="1">
          <mxGeometry relative="1" as="geometry">
            <Array as="points">
              <mxPoint x="1890" y="2316" />
              <mxPoint x="1890" y="2130" />
              <mxPoint x="923" y="2130" />
            </Array>
          </mxGeometry>
        </mxCell>
        <mxCell id="0iyKYwHK2RuOoZLVOAF2-44" value="¿Es el responsable&lt;div&gt;&amp;nbsp;del riesgo?&lt;/div&gt;" style="rhombus;whiteSpace=wrap;html=1;" parent="1" vertex="1">
          <mxGeometry x="1563" y="2276" width="125" height="80" as="geometry" />
        </mxCell>
        <mxCell id="0iyKYwHK2RuOoZLVOAF2-45" value="Si" style="text;html=1;align=center;verticalAlign=middle;resizable=0;points=[];autosize=1;strokeColor=none;fillColor=none;" parent="1" vertex="1">
          <mxGeometry x="1537.5" y="2290" width="30" height="30" as="geometry" />
        </mxCell>
        <mxCell id="0iyKYwHK2RuOoZLVOAF2-46" value="No" style="text;html=1;align=center;verticalAlign=middle;resizable=0;points=[];autosize=1;strokeColor=none;fillColor=none;" parent="1" vertex="1">
          <mxGeometry x="1682.5" y="2290" width="40" height="30" as="geometry" />
        </mxCell>
        <mxCell id="0iyKYwHK2RuOoZLVOAF2-47" style="edgeStyle=orthogonalEdgeStyle;rounded=0;orthogonalLoop=1;jettySize=auto;html=1;endArrow=none;endFill=0;" parent="1" source="0iyKYwHK2RuOoZLVOAF2-48" edge="1">
          <mxGeometry relative="1" as="geometry">
            <mxPoint x="1210" y="2870" as="targetPoint" />
            <Array as="points">
              <mxPoint x="1647" y="2880" />
              <mxPoint x="1211" y="2880" />
              <mxPoint x="1211" y="2870" />
            </Array>
          </mxGeometry>
        </mxCell>
        <mxCell id="0iyKYwHK2RuOoZLVOAF2-48" value="Descartar cambios" style="whiteSpace=wrap;html=1;" parent="1" vertex="1">
          <mxGeometry x="1587" y="2686" width="120" height="60" as="geometry" />
        </mxCell>
        <mxCell id="0iyKYwHK2RuOoZLVOAF2-49" value="Si" style="text;html=1;align=center;verticalAlign=middle;resizable=0;points=[];autosize=1;strokeColor=none;fillColor=none;" parent="1" vertex="1">
          <mxGeometry x="1444.5" y="2585" width="30" height="30" as="geometry" />
        </mxCell>
        <mxCell id="0iyKYwHK2RuOoZLVOAF2-50" value="No" style="text;html=1;align=center;verticalAlign=middle;resizable=0;points=[];autosize=1;strokeColor=none;fillColor=none;" parent="1" vertex="1">
          <mxGeometry x="1589.5" y="2585" width="40" height="30" as="geometry" />
        </mxCell>
        <mxCell id="0iyKYwHK2RuOoZLVOAF2-51" value="Modificar atributos" style="shape=parallelogram;perimeter=parallelogramPerimeter;whiteSpace=wrap;html=1;fixedSize=1;" parent="1" vertex="1">
          <mxGeometry x="1459.5" y="2469" width="155" height="61" as="geometry" />
        </mxCell>
        <mxCell id="0iyKYwHK2RuOoZLVOAF2-59" value="Eliminar evaluación de riesgo" style="text;html=1;align=center;verticalAlign=middle;resizable=0;points=[];autosize=1;strokeColor=none;fillColor=none;" parent="1" vertex="1">
          <mxGeometry x="1925" y="2248.5" width="180" height="30" as="geometry" />
        </mxCell>
        <mxCell id="0iyKYwHK2RuOoZLVOAF2-60" style="edgeStyle=orthogonalEdgeStyle;rounded=0;orthogonalLoop=1;jettySize=auto;html=1;entryX=0.5;entryY=0;entryDx=0;entryDy=0;" parent="1" source="0iyKYwHK2RuOoZLVOAF2-62" target="0iyKYwHK2RuOoZLVOAF2-71" edge="1">
          <mxGeometry relative="1" as="geometry">
            <Array as="points">
              <mxPoint x="2317" y="2607.5" />
            </Array>
          </mxGeometry>
        </mxCell>
        <mxCell id="0iyKYwHK2RuOoZLVOAF2-61" style="edgeStyle=orthogonalEdgeStyle;rounded=0;orthogonalLoop=1;jettySize=auto;html=1;entryX=0.5;entryY=0;entryDx=0;entryDy=0;" parent="1" source="0iyKYwHK2RuOoZLVOAF2-62" target="0iyKYwHK2RuOoZLVOAF2-64" edge="1">
          <mxGeometry relative="1" as="geometry">
            <Array as="points">
              <mxPoint x="2094" y="2607.5" />
            </Array>
          </mxGeometry>
        </mxCell>
        <mxCell id="0iyKYwHK2RuOoZLVOAF2-62" value="¿Esta seguro?" style="rhombus;whiteSpace=wrap;html=1;" parent="1" vertex="1">
          <mxGeometry x="2157" y="2562.5" width="100" height="90" as="geometry" />
        </mxCell>
        <mxCell id="0iyKYwHK2RuOoZLVOAF2-63" style="edgeStyle=orthogonalEdgeStyle;rounded=0;orthogonalLoop=1;jettySize=auto;html=1;entryX=0.5;entryY=0;entryDx=0;entryDy=0;" parent="1" target="0iyKYwHK2RuOoZLVOAF2-62" edge="1">
          <mxGeometry relative="1" as="geometry">
            <mxPoint x="2207" y="2521" as="sourcePoint" />
          </mxGeometry>
        </mxCell>
        <mxCell id="0iyKYwHK2RuOoZLVOAF2-77" style="edgeStyle=orthogonalEdgeStyle;rounded=0;orthogonalLoop=1;jettySize=auto;html=1;endArrow=none;endFill=0;" parent="1" source="0iyKYwHK2RuOoZLVOAF2-64" edge="1">
          <mxGeometry relative="1" as="geometry">
            <mxPoint x="2470" y="2280" as="targetPoint" />
            <Array as="points">
              <mxPoint x="2094" y="2780" />
              <mxPoint x="2470" y="2780" />
              <mxPoint x="2470" y="2300" />
            </Array>
          </mxGeometry>
        </mxCell>
        <mxCell id="0iyKYwHK2RuOoZLVOAF2-64" value="Eliminar evaluación" style="whiteSpace=wrap;html=1;" parent="1" vertex="1">
          <mxGeometry x="2034" y="2677.5" width="120" height="60" as="geometry" />
        </mxCell>
        <mxCell id="0iyKYwHK2RuOoZLVOAF2-65" style="edgeStyle=orthogonalEdgeStyle;rounded=0;orthogonalLoop=1;jettySize=auto;html=1;" parent="1" source="0iyKYwHK2RuOoZLVOAF2-66" edge="1">
          <mxGeometry relative="1" as="geometry">
            <mxPoint x="2207" y="2461" as="targetPoint" />
          </mxGeometry>
        </mxCell>
        <mxCell id="0iyKYwHK2RuOoZLVOAF2-66" value="Ingresar a eliminar evaluación de riesgo" style="whiteSpace=wrap;html=1;" parent="1" vertex="1">
          <mxGeometry x="2147" y="2358.5" width="120" height="60" as="geometry" />
        </mxCell>
        <mxCell id="0iyKYwHK2RuOoZLVOAF2-67" style="edgeStyle=orthogonalEdgeStyle;rounded=0;orthogonalLoop=1;jettySize=auto;html=1;" parent="1" source="0iyKYwHK2RuOoZLVOAF2-68" target="0iyKYwHK2RuOoZLVOAF2-66" edge="1">
          <mxGeometry relative="1" as="geometry">
            <Array as="points">
              <mxPoint x="2207" y="2307.5" />
            </Array>
          </mxGeometry>
        </mxCell>
        <mxCell id="0iyKYwHK2RuOoZLVOAF2-75" style="edgeStyle=orthogonalEdgeStyle;rounded=0;orthogonalLoop=1;jettySize=auto;html=1;endArrow=none;endFill=0;" parent="1" source="0iyKYwHK2RuOoZLVOAF2-68" edge="1">
          <mxGeometry relative="1" as="geometry">
            <mxPoint x="1890" y="2130" as="targetPoint" />
            <Array as="points">
              <mxPoint x="2470" y="2308" />
              <mxPoint x="2470" y="2130" />
            </Array>
          </mxGeometry>
        </mxCell>
        <mxCell id="0iyKYwHK2RuOoZLVOAF2-68" value="¿Es el responsable&lt;div&gt;&amp;nbsp;del riesgo?&lt;/div&gt;" style="rhombus;whiteSpace=wrap;html=1;" parent="1" vertex="1">
          <mxGeometry x="2233" y="2267.5" width="125" height="80" as="geometry" />
        </mxCell>
        <mxCell id="0iyKYwHK2RuOoZLVOAF2-69" value="Si" style="text;html=1;align=center;verticalAlign=middle;resizable=0;points=[];autosize=1;strokeColor=none;fillColor=none;" parent="1" vertex="1">
          <mxGeometry x="2207.5" y="2281.5" width="30" height="30" as="geometry" />
        </mxCell>
        <mxCell id="0iyKYwHK2RuOoZLVOAF2-70" value="No" style="text;html=1;align=center;verticalAlign=middle;resizable=0;points=[];autosize=1;strokeColor=none;fillColor=none;" parent="1" vertex="1">
          <mxGeometry x="2352.5" y="2281.5" width="40" height="30" as="geometry" />
        </mxCell>
        <mxCell id="0iyKYwHK2RuOoZLVOAF2-78" style="edgeStyle=orthogonalEdgeStyle;rounded=0;orthogonalLoop=1;jettySize=auto;html=1;endArrow=none;endFill=0;" parent="1" source="0iyKYwHK2RuOoZLVOAF2-71" edge="1">
          <mxGeometry relative="1" as="geometry">
            <mxPoint x="2317" y="2780" as="targetPoint" />
          </mxGeometry>
        </mxCell>
        <mxCell id="0iyKYwHK2RuOoZLVOAF2-71" value="Descartar eliminación" style="whiteSpace=wrap;html=1;" parent="1" vertex="1">
          <mxGeometry x="2257" y="2677.5" width="120" height="60" as="geometry" />
        </mxCell>
        <mxCell id="0iyKYwHK2RuOoZLVOAF2-72" value="Si" style="text;html=1;align=center;verticalAlign=middle;resizable=0;points=[];autosize=1;strokeColor=none;fillColor=none;" parent="1" vertex="1">
          <mxGeometry x="2114.5" y="2576.5" width="30" height="30" as="geometry" />
        </mxCell>
        <mxCell id="0iyKYwHK2RuOoZLVOAF2-73" value="No" style="text;html=1;align=center;verticalAlign=middle;resizable=0;points=[];autosize=1;strokeColor=none;fillColor=none;" parent="1" vertex="1">
          <mxGeometry x="2259.5" y="2576.5" width="40" height="30" as="geometry" />
        </mxCell>
        <mxCell id="0iyKYwHK2RuOoZLVOAF2-76" value="Informar eliminacion y cual va a ser el reemplazo" style="whiteSpace=wrap;html=1;" parent="1" vertex="1">
          <mxGeometry x="2147.5" y="2460" width="120" height="60" as="geometry" />
        </mxCell>
        <mxCell id="0iyKYwHK2RuOoZLVOAF2-127" value="Modificar plan" style="text;html=1;align=center;verticalAlign=middle;resizable=0;points=[];autosize=1;strokeColor=none;fillColor=none;" parent="1" vertex="1">
          <mxGeometry x="460" y="3205" width="100" height="30" as="geometry" />
        </mxCell>
        <mxCell id="0iyKYwHK2RuOoZLVOAF2-131" value="Añadir plan" style="text;html=1;align=center;verticalAlign=middle;resizable=0;points=[];autosize=1;strokeColor=none;fillColor=none;" parent="1" vertex="1">
          <mxGeometry x="-380" y="3220" width="80" height="30" as="geometry" />
        </mxCell>
        <mxCell id="0iyKYwHK2RuOoZLVOAF2-133" value="" style="edgeStyle=orthogonalEdgeStyle;rounded=0;orthogonalLoop=1;jettySize=auto;html=1;" parent="1" source="0iyKYwHK2RuOoZLVOAF2-134" edge="1">
          <mxGeometry relative="1" as="geometry">
            <mxPoint x="-26" y="3350" as="targetPoint" />
          </mxGeometry>
        </mxCell>
        <mxCell id="0iyKYwHK2RuOoZLVOAF2-134" value="Ingresar a añadir plan" style="whiteSpace=wrap;html=1;" parent="1" vertex="1">
          <mxGeometry x="-86" y="3261" width="120" height="60" as="geometry" />
        </mxCell>
        <mxCell id="0iyKYwHK2RuOoZLVOAF2-135" style="edgeStyle=orthogonalEdgeStyle;rounded=0;orthogonalLoop=1;jettySize=auto;html=1;" parent="1" source="0iyKYwHK2RuOoZLVOAF2-136" target="0iyKYwHK2RuOoZLVOAF2-138" edge="1">
          <mxGeometry relative="1" as="geometry" />
        </mxCell>
        <mxCell id="0iyKYwHK2RuOoZLVOAF2-136" value="Cargar nombre, serie de pasos,&amp;nbsp;&lt;div&gt;responsable/s, fecha de&lt;/div&gt;&lt;div&gt;creacion y finalizacion&lt;/div&gt;" style="shape=parallelogram;perimeter=parallelogramPerimeter;whiteSpace=wrap;html=1;fixedSize=1;" parent="1" vertex="1">
          <mxGeometry x="-131" y="3350" width="215" height="80" as="geometry" />
        </mxCell>
        <mxCell id="0iyKYwHK2RuOoZLVOAF2-137" style="edgeStyle=orthogonalEdgeStyle;rounded=0;orthogonalLoop=1;jettySize=auto;html=1;entryX=0.5;entryY=0;entryDx=0;entryDy=0;" parent="1" source="0iyKYwHK2RuOoZLVOAF2-138" target="vgDRt3HnfkzPyJ0p5jBW-26" edge="1">
          <mxGeometry relative="1" as="geometry">
            <Array as="points">
              <mxPoint x="-117" y="3504" />
            </Array>
            <mxPoint x="-118.5" y="3570" as="targetPoint" />
          </mxGeometry>
        </mxCell>
        <mxCell id="vgDRt3HnfkzPyJ0p5jBW-28" style="edgeStyle=orthogonalEdgeStyle;rounded=0;orthogonalLoop=1;jettySize=auto;html=1;entryX=0.5;entryY=0;entryDx=0;entryDy=0;" edge="1" parent="1" source="0iyKYwHK2RuOoZLVOAF2-138" target="vgDRt3HnfkzPyJ0p5jBW-27">
          <mxGeometry relative="1" as="geometry">
            <Array as="points">
              <mxPoint x="93" y="3504" />
            </Array>
          </mxGeometry>
        </mxCell>
        <mxCell id="0iyKYwHK2RuOoZLVOAF2-138" value="¿Confirma plan&lt;span style=&quot;background-color: initial;&quot;&gt;?&lt;/span&gt;" style="rhombus;whiteSpace=wrap;html=1;" parent="1" vertex="1">
          <mxGeometry x="-86" y="3464" width="125" height="80" as="geometry" />
        </mxCell>
        <mxCell id="0iyKYwHK2RuOoZLVOAF2-139" value="Si" style="text;html=1;align=center;verticalAlign=middle;resizable=0;points=[];autosize=1;strokeColor=none;fillColor=none;" parent="1" vertex="1">
          <mxGeometry x="-108.5" y="3470" width="30" height="30" as="geometry" />
        </mxCell>
        <mxCell id="0iyKYwHK2RuOoZLVOAF2-140" value="No" style="text;html=1;align=center;verticalAlign=middle;resizable=0;points=[];autosize=1;strokeColor=none;fillColor=none;" parent="1" vertex="1">
          <mxGeometry x="36.5" y="3470" width="40" height="30" as="geometry" />
        </mxCell>
        <mxCell id="0iyKYwHK2RuOoZLVOAF2-146" style="edgeStyle=orthogonalEdgeStyle;rounded=0;orthogonalLoop=1;jettySize=auto;html=1;" parent="1" source="0iyKYwHK2RuOoZLVOAF2-147" edge="1">
          <mxGeometry relative="1" as="geometry">
            <mxPoint x="659" y="3400" as="targetPoint" />
          </mxGeometry>
        </mxCell>
        <mxCell id="0iyKYwHK2RuOoZLVOAF2-147" value="Ingresar a modificar plan" style="whiteSpace=wrap;html=1;" parent="1" vertex="1">
          <mxGeometry x="599" y="3310" width="120" height="60" as="geometry" />
        </mxCell>
        <mxCell id="0iyKYwHK2RuOoZLVOAF2-162" style="edgeStyle=orthogonalEdgeStyle;rounded=0;orthogonalLoop=1;jettySize=auto;html=1;entryX=0.5;entryY=0;entryDx=0;entryDy=0;" parent="1" source="0iyKYwHK2RuOoZLVOAF2-164" target="0iyKYwHK2RuOoZLVOAF2-166" edge="1">
          <mxGeometry relative="1" as="geometry">
            <Array as="points">
              <mxPoint x="539" y="3545" />
            </Array>
          </mxGeometry>
        </mxCell>
        <mxCell id="vgDRt3HnfkzPyJ0p5jBW-42" style="edgeStyle=orthogonalEdgeStyle;rounded=0;orthogonalLoop=1;jettySize=auto;html=1;entryX=0.5;entryY=0;entryDx=0;entryDy=0;" edge="1" parent="1" source="0iyKYwHK2RuOoZLVOAF2-164" target="vgDRt3HnfkzPyJ0p5jBW-41">
          <mxGeometry relative="1" as="geometry">
            <Array as="points">
              <mxPoint x="739" y="3545" />
            </Array>
          </mxGeometry>
        </mxCell>
        <mxCell id="0iyKYwHK2RuOoZLVOAF2-164" value="¿Confirma cambios?" style="rhombus;whiteSpace=wrap;html=1;" parent="1" vertex="1">
          <mxGeometry x="595.5" y="3505" width="125" height="80" as="geometry" />
        </mxCell>
        <mxCell id="vgDRt3HnfkzPyJ0p5jBW-40" style="edgeStyle=orthogonalEdgeStyle;rounded=0;orthogonalLoop=1;jettySize=auto;html=1;endArrow=none;endFill=0;" edge="1" parent="1" source="0iyKYwHK2RuOoZLVOAF2-166">
          <mxGeometry relative="1" as="geometry">
            <mxPoint x="410" y="3690" as="targetPoint" />
            <Array as="points">
              <mxPoint x="539" y="3730" />
              <mxPoint x="410" y="3730" />
            </Array>
          </mxGeometry>
        </mxCell>
        <mxCell id="0iyKYwHK2RuOoZLVOAF2-166" value="Actualizar plan" style="whiteSpace=wrap;html=1;" parent="1" vertex="1">
          <mxGeometry x="479" y="3605" width="120" height="60" as="geometry" />
        </mxCell>
        <mxCell id="0iyKYwHK2RuOoZLVOAF2-167" value="Si" style="text;html=1;align=center;verticalAlign=middle;resizable=0;points=[];autosize=1;strokeColor=none;fillColor=none;" parent="1" vertex="1">
          <mxGeometry x="574" y="3520" width="30" height="30" as="geometry" />
        </mxCell>
        <mxCell id="0iyKYwHK2RuOoZLVOAF2-168" value="No" style="text;html=1;align=center;verticalAlign=middle;resizable=0;points=[];autosize=1;strokeColor=none;fillColor=none;" parent="1" vertex="1">
          <mxGeometry x="719" y="3520" width="40" height="30" as="geometry" />
        </mxCell>
        <mxCell id="0iyKYwHK2RuOoZLVOAF2-172" value="Añadir Programar evaluación de riesgo" style="text;html=1;align=center;verticalAlign=middle;resizable=0;points=[];autosize=1;strokeColor=none;fillColor=none;" parent="1" vertex="1">
          <mxGeometry x="1549" y="1429" width="230" height="30" as="geometry" />
        </mxCell>
        <mxCell id="0iyKYwHK2RuOoZLVOAF2-173" style="edgeStyle=orthogonalEdgeStyle;rounded=0;orthogonalLoop=1;jettySize=auto;html=1;entryX=0.5;entryY=0;entryDx=0;entryDy=0;" parent="1" source="0iyKYwHK2RuOoZLVOAF2-175" target="0iyKYwHK2RuOoZLVOAF2-187" edge="1">
          <mxGeometry relative="1" as="geometry">
            <Array as="points">
              <mxPoint x="1936" y="1789" />
            </Array>
          </mxGeometry>
        </mxCell>
        <mxCell id="0iyKYwHK2RuOoZLVOAF2-174" style="edgeStyle=orthogonalEdgeStyle;rounded=0;orthogonalLoop=1;jettySize=auto;html=1;entryX=0.5;entryY=0;entryDx=0;entryDy=0;" parent="1" source="0iyKYwHK2RuOoZLVOAF2-175" target="0iyKYwHK2RuOoZLVOAF2-178" edge="1">
          <mxGeometry relative="1" as="geometry">
            <Array as="points">
              <mxPoint x="1713" y="1789" />
            </Array>
          </mxGeometry>
        </mxCell>
        <mxCell id="0iyKYwHK2RuOoZLVOAF2-175" value="¿Esta seguro?" style="rhombus;whiteSpace=wrap;html=1;" parent="1" vertex="1">
          <mxGeometry x="1776" y="1744" width="100" height="90" as="geometry" />
        </mxCell>
        <mxCell id="0iyKYwHK2RuOoZLVOAF2-176" style="edgeStyle=orthogonalEdgeStyle;rounded=0;orthogonalLoop=1;jettySize=auto;html=1;entryX=0.5;entryY=0;entryDx=0;entryDy=0;" parent="1" target="0iyKYwHK2RuOoZLVOAF2-175" edge="1">
          <mxGeometry relative="1" as="geometry">
            <mxPoint x="1826" y="1702.5" as="sourcePoint" />
          </mxGeometry>
        </mxCell>
        <mxCell id="0iyKYwHK2RuOoZLVOAF2-195" style="edgeStyle=orthogonalEdgeStyle;rounded=0;orthogonalLoop=1;jettySize=auto;html=1;endArrow=none;endFill=0;" parent="1" source="0iyKYwHK2RuOoZLVOAF2-178" edge="1">
          <mxGeometry relative="1" as="geometry">
            <mxPoint x="2200" y="1590" as="targetPoint" />
            <Array as="points">
              <mxPoint x="1713" y="1980" />
              <mxPoint x="2200" y="1980" />
              <mxPoint x="2200" y="1590" />
            </Array>
          </mxGeometry>
        </mxCell>
        <mxCell id="0iyKYwHK2RuOoZLVOAF2-178" value="Agregar programacion" style="whiteSpace=wrap;html=1;" parent="1" vertex="1">
          <mxGeometry x="1653" y="1859" width="120" height="60" as="geometry" />
        </mxCell>
        <mxCell id="0iyKYwHK2RuOoZLVOAF2-179" style="edgeStyle=orthogonalEdgeStyle;rounded=0;orthogonalLoop=1;jettySize=auto;html=1;" parent="1" source="0iyKYwHK2RuOoZLVOAF2-180" edge="1">
          <mxGeometry relative="1" as="geometry">
            <mxPoint x="1826" y="1642.5" as="targetPoint" />
          </mxGeometry>
        </mxCell>
        <mxCell id="0iyKYwHK2RuOoZLVOAF2-180" value="Ingresar a programar evaluación" style="whiteSpace=wrap;html=1;" parent="1" vertex="1">
          <mxGeometry x="1766" y="1540" width="120" height="60" as="geometry" />
        </mxCell>
        <mxCell id="0iyKYwHK2RuOoZLVOAF2-181" style="edgeStyle=orthogonalEdgeStyle;rounded=0;orthogonalLoop=1;jettySize=auto;html=1;" parent="1" source="0iyKYwHK2RuOoZLVOAF2-183" target="0iyKYwHK2RuOoZLVOAF2-180" edge="1">
          <mxGeometry relative="1" as="geometry">
            <Array as="points">
              <mxPoint x="1826" y="1489" />
            </Array>
          </mxGeometry>
        </mxCell>
        <mxCell id="0iyKYwHK2RuOoZLVOAF2-182" style="edgeStyle=orthogonalEdgeStyle;rounded=0;orthogonalLoop=1;jettySize=auto;html=1;entryX=0.5;entryY=0;entryDx=0;entryDy=0;" parent="1" source="0iyKYwHK2RuOoZLVOAF2-183" target="0iyKYwHK2RuOoZLVOAF2-192" edge="1">
          <mxGeometry relative="1" as="geometry" />
        </mxCell>
        <mxCell id="0iyKYwHK2RuOoZLVOAF2-183" value="¿Es el lider del proyecto&lt;span style=&quot;background-color: initial;&quot;&gt;?&lt;/span&gt;" style="rhombus;whiteSpace=wrap;html=1;" parent="1" vertex="1">
          <mxGeometry x="1863" y="1449" width="125" height="80" as="geometry" />
        </mxCell>
        <mxCell id="0iyKYwHK2RuOoZLVOAF2-184" value="Si" style="text;html=1;align=center;verticalAlign=middle;resizable=0;points=[];autosize=1;strokeColor=none;fillColor=none;" parent="1" vertex="1">
          <mxGeometry x="1826.5" y="1463" width="30" height="30" as="geometry" />
        </mxCell>
        <mxCell id="0iyKYwHK2RuOoZLVOAF2-185" value="No" style="text;html=1;align=center;verticalAlign=middle;resizable=0;points=[];autosize=1;strokeColor=none;fillColor=none;" parent="1" vertex="1">
          <mxGeometry x="1971.5" y="1463" width="40" height="30" as="geometry" />
        </mxCell>
        <mxCell id="0iyKYwHK2RuOoZLVOAF2-196" style="edgeStyle=orthogonalEdgeStyle;rounded=0;orthogonalLoop=1;jettySize=auto;html=1;endArrow=none;endFill=0;" parent="1" source="0iyKYwHK2RuOoZLVOAF2-187" edge="1">
          <mxGeometry relative="1" as="geometry">
            <mxPoint x="1936.000000000001" y="1980" as="targetPoint" />
          </mxGeometry>
        </mxCell>
        <mxCell id="0iyKYwHK2RuOoZLVOAF2-187" value="Descartar programacion" style="whiteSpace=wrap;html=1;" parent="1" vertex="1">
          <mxGeometry x="1876" y="1859" width="120" height="60" as="geometry" />
        </mxCell>
        <mxCell id="0iyKYwHK2RuOoZLVOAF2-188" value="Si" style="text;html=1;align=center;verticalAlign=middle;resizable=0;points=[];autosize=1;strokeColor=none;fillColor=none;" parent="1" vertex="1">
          <mxGeometry x="1733.5" y="1758" width="30" height="30" as="geometry" />
        </mxCell>
        <mxCell id="0iyKYwHK2RuOoZLVOAF2-189" value="No" style="text;html=1;align=center;verticalAlign=middle;resizable=0;points=[];autosize=1;strokeColor=none;fillColor=none;" parent="1" vertex="1">
          <mxGeometry x="1878.5" y="1758" width="40" height="30" as="geometry" />
        </mxCell>
        <mxCell id="0iyKYwHK2RuOoZLVOAF2-190" value="Ingresar fecha de&amp;nbsp;&lt;div&gt;inicio y frecuencia expresado en dias&lt;/div&gt;" style="shape=parallelogram;perimeter=parallelogramPerimeter;whiteSpace=wrap;html=1;fixedSize=1;" parent="1" vertex="1">
          <mxGeometry x="1748.5" y="1642" width="155" height="61" as="geometry" />
        </mxCell>
        <mxCell id="0iyKYwHK2RuOoZLVOAF2-194" style="edgeStyle=orthogonalEdgeStyle;rounded=0;orthogonalLoop=1;jettySize=auto;html=1;endArrow=none;endFill=0;" parent="1" source="0iyKYwHK2RuOoZLVOAF2-192" edge="1">
          <mxGeometry relative="1" as="geometry">
            <mxPoint x="1500" y="1288" as="targetPoint" />
            <Array as="points">
              <mxPoint x="2051" y="1630" />
              <mxPoint x="2200" y="1630" />
              <mxPoint x="2200" y="1290" />
              <mxPoint x="1500" y="1290" />
            </Array>
          </mxGeometry>
        </mxCell>
        <mxCell id="0iyKYwHK2RuOoZLVOAF2-192" value="Visualizar programacion" style="whiteSpace=wrap;html=1;" parent="1" vertex="1">
          <mxGeometry x="1991" y="1538" width="120" height="60" as="geometry" />
        </mxCell>
        <mxCell id="0iyKYwHK2RuOoZLVOAF2-198" value="Modificar programacion de evaluación de riesgo" style="text;html=1;align=center;verticalAlign=middle;resizable=0;points=[];autosize=1;strokeColor=none;fillColor=none;" parent="1" vertex="1">
          <mxGeometry x="2242.5" y="1430" width="280" height="30" as="geometry" />
        </mxCell>
        <mxCell id="0iyKYwHK2RuOoZLVOAF2-199" style="edgeStyle=orthogonalEdgeStyle;rounded=0;orthogonalLoop=1;jettySize=auto;html=1;entryX=0.5;entryY=0;entryDx=0;entryDy=0;" parent="1" source="0iyKYwHK2RuOoZLVOAF2-201" target="0iyKYwHK2RuOoZLVOAF2-212" edge="1">
          <mxGeometry relative="1" as="geometry">
            <Array as="points">
              <mxPoint x="2628" y="1789" />
            </Array>
          </mxGeometry>
        </mxCell>
        <mxCell id="0iyKYwHK2RuOoZLVOAF2-200" style="edgeStyle=orthogonalEdgeStyle;rounded=0;orthogonalLoop=1;jettySize=auto;html=1;entryX=0.5;entryY=0;entryDx=0;entryDy=0;" parent="1" source="0iyKYwHK2RuOoZLVOAF2-201" target="0iyKYwHK2RuOoZLVOAF2-203" edge="1">
          <mxGeometry relative="1" as="geometry">
            <Array as="points">
              <mxPoint x="2405" y="1789" />
            </Array>
          </mxGeometry>
        </mxCell>
        <mxCell id="0iyKYwHK2RuOoZLVOAF2-201" value="¿Esta seguro?" style="rhombus;whiteSpace=wrap;html=1;" parent="1" vertex="1">
          <mxGeometry x="2468" y="1744" width="100" height="90" as="geometry" />
        </mxCell>
        <mxCell id="0iyKYwHK2RuOoZLVOAF2-202" style="edgeStyle=orthogonalEdgeStyle;rounded=0;orthogonalLoop=1;jettySize=auto;html=1;entryX=0.5;entryY=0;entryDx=0;entryDy=0;" parent="1" target="0iyKYwHK2RuOoZLVOAF2-201" edge="1">
          <mxGeometry relative="1" as="geometry">
            <mxPoint x="2518" y="1702.5" as="sourcePoint" />
          </mxGeometry>
        </mxCell>
        <mxCell id="0iyKYwHK2RuOoZLVOAF2-219" style="edgeStyle=orthogonalEdgeStyle;rounded=0;orthogonalLoop=1;jettySize=auto;html=1;endArrow=none;endFill=0;" parent="1" source="0iyKYwHK2RuOoZLVOAF2-203" edge="1">
          <mxGeometry relative="1" as="geometry">
            <mxPoint x="2780" y="1470" as="targetPoint" />
            <Array as="points">
              <mxPoint x="2405" y="1980" />
              <mxPoint x="2781" y="1980" />
              <mxPoint x="2781" y="1470" />
            </Array>
          </mxGeometry>
        </mxCell>
        <mxCell id="0iyKYwHK2RuOoZLVOAF2-203" value="Modificar programacion" style="whiteSpace=wrap;html=1;" parent="1" vertex="1">
          <mxGeometry x="2345" y="1859" width="120" height="60" as="geometry" />
        </mxCell>
        <mxCell id="0iyKYwHK2RuOoZLVOAF2-204" style="edgeStyle=orthogonalEdgeStyle;rounded=0;orthogonalLoop=1;jettySize=auto;html=1;" parent="1" source="0iyKYwHK2RuOoZLVOAF2-205" edge="1">
          <mxGeometry relative="1" as="geometry">
            <mxPoint x="2518" y="1642.5" as="targetPoint" />
          </mxGeometry>
        </mxCell>
        <mxCell id="0iyKYwHK2RuOoZLVOAF2-205" value="Ingresar a modificar programacion" style="whiteSpace=wrap;html=1;" parent="1" vertex="1">
          <mxGeometry x="2458" y="1540" width="120" height="60" as="geometry" />
        </mxCell>
        <mxCell id="0iyKYwHK2RuOoZLVOAF2-206" style="edgeStyle=orthogonalEdgeStyle;rounded=0;orthogonalLoop=1;jettySize=auto;html=1;" parent="1" source="0iyKYwHK2RuOoZLVOAF2-208" target="0iyKYwHK2RuOoZLVOAF2-205" edge="1">
          <mxGeometry relative="1" as="geometry">
            <Array as="points">
              <mxPoint x="2518" y="1489" />
            </Array>
          </mxGeometry>
        </mxCell>
        <mxCell id="0iyKYwHK2RuOoZLVOAF2-218" style="edgeStyle=orthogonalEdgeStyle;rounded=0;orthogonalLoop=1;jettySize=auto;html=1;endArrow=none;endFill=0;" parent="1" source="0iyKYwHK2RuOoZLVOAF2-208" edge="1">
          <mxGeometry relative="1" as="geometry">
            <mxPoint x="2200" y="1290" as="targetPoint" />
            <Array as="points">
              <mxPoint x="2780" y="1489" />
              <mxPoint x="2780" y="1290" />
            </Array>
          </mxGeometry>
        </mxCell>
        <mxCell id="0iyKYwHK2RuOoZLVOAF2-208" value="¿Es el lider del proyecto&lt;span style=&quot;background-color: initial;&quot;&gt;?&lt;/span&gt;" style="rhombus;whiteSpace=wrap;html=1;" parent="1" vertex="1">
          <mxGeometry x="2544" y="1449" width="125" height="80" as="geometry" />
        </mxCell>
        <mxCell id="0iyKYwHK2RuOoZLVOAF2-209" value="Si" style="text;html=1;align=center;verticalAlign=middle;resizable=0;points=[];autosize=1;strokeColor=none;fillColor=none;" parent="1" vertex="1">
          <mxGeometry x="2518.5" y="1463" width="30" height="30" as="geometry" />
        </mxCell>
        <mxCell id="0iyKYwHK2RuOoZLVOAF2-210" value="No" style="text;html=1;align=center;verticalAlign=middle;resizable=0;points=[];autosize=1;strokeColor=none;fillColor=none;" parent="1" vertex="1">
          <mxGeometry x="2663.5" y="1463" width="40" height="30" as="geometry" />
        </mxCell>
        <mxCell id="0iyKYwHK2RuOoZLVOAF2-211" style="edgeStyle=orthogonalEdgeStyle;rounded=0;orthogonalLoop=1;jettySize=auto;html=1;endArrow=none;endFill=0;" parent="1" source="0iyKYwHK2RuOoZLVOAF2-212" edge="1">
          <mxGeometry relative="1" as="geometry">
            <mxPoint x="2628.000000000001" y="1980" as="targetPoint" />
          </mxGeometry>
        </mxCell>
        <mxCell id="0iyKYwHK2RuOoZLVOAF2-212" value="Descartar modificacion" style="whiteSpace=wrap;html=1;" parent="1" vertex="1">
          <mxGeometry x="2568" y="1859" width="120" height="60" as="geometry" />
        </mxCell>
        <mxCell id="0iyKYwHK2RuOoZLVOAF2-213" value="Si" style="text;html=1;align=center;verticalAlign=middle;resizable=0;points=[];autosize=1;strokeColor=none;fillColor=none;" parent="1" vertex="1">
          <mxGeometry x="2425.5" y="1758" width="30" height="30" as="geometry" />
        </mxCell>
        <mxCell id="0iyKYwHK2RuOoZLVOAF2-214" value="No" style="text;html=1;align=center;verticalAlign=middle;resizable=0;points=[];autosize=1;strokeColor=none;fillColor=none;" parent="1" vertex="1">
          <mxGeometry x="2570.5" y="1758" width="40" height="30" as="geometry" />
        </mxCell>
        <mxCell id="0iyKYwHK2RuOoZLVOAF2-215" value="Modificar atributo" style="shape=parallelogram;perimeter=parallelogramPerimeter;whiteSpace=wrap;html=1;fixedSize=1;" parent="1" vertex="1">
          <mxGeometry x="2440.5" y="1642" width="155" height="61" as="geometry" />
        </mxCell>
        <mxCell id="vgDRt3HnfkzPyJ0p5jBW-1" value="" style="rounded=0;whiteSpace=wrap;html=1;" vertex="1" parent="1">
          <mxGeometry x="2820" y="1426" width="509" height="520" as="geometry" />
        </mxCell>
        <mxCell id="vgDRt3HnfkzPyJ0p5jBW-2" value="Eliminar programacion de evaluación de riesgo" style="text;html=1;align=center;verticalAlign=middle;resizable=0;points=[];autosize=1;strokeColor=none;fillColor=none;" vertex="1" parent="1">
          <mxGeometry x="2826.5" y="1426" width="270" height="30" as="geometry" />
        </mxCell>
        <mxCell id="vgDRt3HnfkzPyJ0p5jBW-3" style="edgeStyle=orthogonalEdgeStyle;rounded=0;orthogonalLoop=1;jettySize=auto;html=1;entryX=0.5;entryY=0;entryDx=0;entryDy=0;" edge="1" parent="1" source="vgDRt3HnfkzPyJ0p5jBW-5" target="vgDRt3HnfkzPyJ0p5jBW-16">
          <mxGeometry relative="1" as="geometry">
            <Array as="points">
              <mxPoint x="3207" y="1785" />
            </Array>
          </mxGeometry>
        </mxCell>
        <mxCell id="vgDRt3HnfkzPyJ0p5jBW-4" style="edgeStyle=orthogonalEdgeStyle;rounded=0;orthogonalLoop=1;jettySize=auto;html=1;entryX=0.5;entryY=0;entryDx=0;entryDy=0;" edge="1" parent="1" source="vgDRt3HnfkzPyJ0p5jBW-5" target="vgDRt3HnfkzPyJ0p5jBW-8">
          <mxGeometry relative="1" as="geometry">
            <Array as="points">
              <mxPoint x="2984" y="1785" />
            </Array>
          </mxGeometry>
        </mxCell>
        <mxCell id="vgDRt3HnfkzPyJ0p5jBW-5" value="¿Esta seguro?" style="rhombus;whiteSpace=wrap;html=1;" vertex="1" parent="1">
          <mxGeometry x="3047" y="1740" width="100" height="90" as="geometry" />
        </mxCell>
        <mxCell id="vgDRt3HnfkzPyJ0p5jBW-6" style="edgeStyle=orthogonalEdgeStyle;rounded=0;orthogonalLoop=1;jettySize=auto;html=1;entryX=0.5;entryY=0;entryDx=0;entryDy=0;" edge="1" parent="1" target="vgDRt3HnfkzPyJ0p5jBW-5">
          <mxGeometry relative="1" as="geometry">
            <mxPoint x="3097" y="1698.5" as="sourcePoint" />
          </mxGeometry>
        </mxCell>
        <mxCell id="vgDRt3HnfkzPyJ0p5jBW-7" style="edgeStyle=orthogonalEdgeStyle;rounded=0;orthogonalLoop=1;jettySize=auto;html=1;endArrow=none;endFill=0;" edge="1" parent="1" source="vgDRt3HnfkzPyJ0p5jBW-8">
          <mxGeometry relative="1" as="geometry">
            <mxPoint x="3359" y="1466" as="targetPoint" />
            <Array as="points">
              <mxPoint x="2984" y="1976" />
              <mxPoint x="3360" y="1976" />
              <mxPoint x="3360" y="1466" />
            </Array>
          </mxGeometry>
        </mxCell>
        <mxCell id="vgDRt3HnfkzPyJ0p5jBW-8" value="Eliminar programacion" style="whiteSpace=wrap;html=1;" vertex="1" parent="1">
          <mxGeometry x="2924" y="1855" width="120" height="60" as="geometry" />
        </mxCell>
        <mxCell id="vgDRt3HnfkzPyJ0p5jBW-9" style="edgeStyle=orthogonalEdgeStyle;rounded=0;orthogonalLoop=1;jettySize=auto;html=1;" edge="1" parent="1" source="vgDRt3HnfkzPyJ0p5jBW-10">
          <mxGeometry relative="1" as="geometry">
            <mxPoint x="3097" y="1638.5" as="targetPoint" />
          </mxGeometry>
        </mxCell>
        <mxCell id="vgDRt3HnfkzPyJ0p5jBW-10" value="Ingresar a eliminar programacion" style="whiteSpace=wrap;html=1;" vertex="1" parent="1">
          <mxGeometry x="3037" y="1536" width="120" height="60" as="geometry" />
        </mxCell>
        <mxCell id="vgDRt3HnfkzPyJ0p5jBW-11" style="edgeStyle=orthogonalEdgeStyle;rounded=0;orthogonalLoop=1;jettySize=auto;html=1;" edge="1" parent="1" source="vgDRt3HnfkzPyJ0p5jBW-12" target="vgDRt3HnfkzPyJ0p5jBW-10">
          <mxGeometry relative="1" as="geometry">
            <Array as="points">
              <mxPoint x="3097" y="1485" />
            </Array>
          </mxGeometry>
        </mxCell>
        <mxCell id="vgDRt3HnfkzPyJ0p5jBW-20" style="edgeStyle=orthogonalEdgeStyle;rounded=0;orthogonalLoop=1;jettySize=auto;html=1;endArrow=none;endFill=0;" edge="1" parent="1" source="vgDRt3HnfkzPyJ0p5jBW-12">
          <mxGeometry relative="1" as="geometry">
            <mxPoint x="2780" y="1289.9999999999998" as="targetPoint" />
            <Array as="points">
              <mxPoint x="3360" y="1485" />
              <mxPoint x="3360" y="1290" />
            </Array>
          </mxGeometry>
        </mxCell>
        <mxCell id="vgDRt3HnfkzPyJ0p5jBW-12" value="¿Es el lider del proyecto&lt;span style=&quot;background-color: initial;&quot;&gt;?&lt;/span&gt;" style="rhombus;whiteSpace=wrap;html=1;" vertex="1" parent="1">
          <mxGeometry x="3123" y="1445" width="125" height="80" as="geometry" />
        </mxCell>
        <mxCell id="vgDRt3HnfkzPyJ0p5jBW-13" value="Si" style="text;html=1;align=center;verticalAlign=middle;resizable=0;points=[];autosize=1;strokeColor=none;fillColor=none;" vertex="1" parent="1">
          <mxGeometry x="3097.5" y="1459" width="30" height="30" as="geometry" />
        </mxCell>
        <mxCell id="vgDRt3HnfkzPyJ0p5jBW-14" value="No" style="text;html=1;align=center;verticalAlign=middle;resizable=0;points=[];autosize=1;strokeColor=none;fillColor=none;" vertex="1" parent="1">
          <mxGeometry x="3242.5" y="1459" width="40" height="30" as="geometry" />
        </mxCell>
        <mxCell id="vgDRt3HnfkzPyJ0p5jBW-15" style="edgeStyle=orthogonalEdgeStyle;rounded=0;orthogonalLoop=1;jettySize=auto;html=1;endArrow=none;endFill=0;" edge="1" parent="1" source="vgDRt3HnfkzPyJ0p5jBW-16">
          <mxGeometry relative="1" as="geometry">
            <mxPoint x="3207.000000000001" y="1976" as="targetPoint" />
          </mxGeometry>
        </mxCell>
        <mxCell id="vgDRt3HnfkzPyJ0p5jBW-16" value="Descartar eliminacion" style="whiteSpace=wrap;html=1;" vertex="1" parent="1">
          <mxGeometry x="3147" y="1855" width="120" height="60" as="geometry" />
        </mxCell>
        <mxCell id="vgDRt3HnfkzPyJ0p5jBW-17" value="Si" style="text;html=1;align=center;verticalAlign=middle;resizable=0;points=[];autosize=1;strokeColor=none;fillColor=none;" vertex="1" parent="1">
          <mxGeometry x="3004.5" y="1754" width="30" height="30" as="geometry" />
        </mxCell>
        <mxCell id="vgDRt3HnfkzPyJ0p5jBW-18" value="No" style="text;html=1;align=center;verticalAlign=middle;resizable=0;points=[];autosize=1;strokeColor=none;fillColor=none;" vertex="1" parent="1">
          <mxGeometry x="3149.5" y="1754" width="40" height="30" as="geometry" />
        </mxCell>
        <mxCell id="vgDRt3HnfkzPyJ0p5jBW-21" value="Mostrar elementos a eliminar" style="whiteSpace=wrap;html=1;" vertex="1" parent="1">
          <mxGeometry x="3037" y="1638.5" width="120" height="60" as="geometry" />
        </mxCell>
        <mxCell id="vgDRt3HnfkzPyJ0p5jBW-29" style="edgeStyle=orthogonalEdgeStyle;rounded=0;orthogonalLoop=1;jettySize=auto;html=1;entryX=0.5;entryY=0;entryDx=0;entryDy=0;" edge="1" parent="1" source="vgDRt3HnfkzPyJ0p5jBW-26" target="vgDRt3HnfkzPyJ0p5jBW-27">
          <mxGeometry relative="1" as="geometry" />
        </mxCell>
        <mxCell id="vgDRt3HnfkzPyJ0p5jBW-34" style="edgeStyle=orthogonalEdgeStyle;rounded=0;orthogonalLoop=1;jettySize=auto;html=1;entryX=0.5;entryY=0;entryDx=0;entryDy=0;" edge="1" parent="1" source="vgDRt3HnfkzPyJ0p5jBW-26" target="vgDRt3HnfkzPyJ0p5jBW-32">
          <mxGeometry relative="1" as="geometry" />
        </mxCell>
        <mxCell id="vgDRt3HnfkzPyJ0p5jBW-26" value="¿Ya existen los 3&amp;nbsp;&lt;div&gt;tipos planes&lt;span style=&quot;background-color: initial;&quot;&gt;?&lt;/span&gt;&lt;/div&gt;" style="rhombus;whiteSpace=wrap;html=1;" vertex="1" parent="1">
          <mxGeometry x="-180" y="3545" width="125" height="80" as="geometry" />
        </mxCell>
        <mxCell id="vgDRt3HnfkzPyJ0p5jBW-36" style="edgeStyle=orthogonalEdgeStyle;rounded=0;orthogonalLoop=1;jettySize=auto;html=1;endArrow=none;endFill=0;" edge="1" parent="1" source="vgDRt3HnfkzPyJ0p5jBW-27">
          <mxGeometry relative="1" as="geometry">
            <mxPoint x="93" y="3730" as="targetPoint" />
          </mxGeometry>
        </mxCell>
        <mxCell id="vgDRt3HnfkzPyJ0p5jBW-27" value="Descartar plan" style="whiteSpace=wrap;html=1;" vertex="1" parent="1">
          <mxGeometry x="33" y="3605" width="120" height="60" as="geometry" />
        </mxCell>
        <mxCell id="vgDRt3HnfkzPyJ0p5jBW-30" value="Si" style="text;html=1;align=center;verticalAlign=middle;resizable=0;points=[];autosize=1;strokeColor=none;fillColor=none;" vertex="1" parent="1">
          <mxGeometry x="-47" y="3551" width="30" height="30" as="geometry" />
        </mxCell>
        <mxCell id="vgDRt3HnfkzPyJ0p5jBW-31" value="No" style="text;html=1;align=center;verticalAlign=middle;resizable=0;points=[];autosize=1;strokeColor=none;fillColor=none;" vertex="1" parent="1">
          <mxGeometry x="-220" y="3551" width="40" height="30" as="geometry" />
        </mxCell>
        <mxCell id="vgDRt3HnfkzPyJ0p5jBW-35" style="edgeStyle=orthogonalEdgeStyle;rounded=0;orthogonalLoop=1;jettySize=auto;html=1;entryX=0.5;entryY=0;entryDx=0;entryDy=0;" edge="1" parent="1" source="vgDRt3HnfkzPyJ0p5jBW-32" target="0iyKYwHK2RuOoZLVOAF2-1">
          <mxGeometry relative="1" as="geometry">
            <Array as="points">
              <mxPoint x="-270" y="3730" />
              <mxPoint x="410" y="3730" />
              <mxPoint x="410" y="2130" />
              <mxPoint x="922" y="2130" />
            </Array>
          </mxGeometry>
        </mxCell>
        <mxCell id="vgDRt3HnfkzPyJ0p5jBW-32" value="Guardar plan" style="whiteSpace=wrap;html=1;" vertex="1" parent="1">
          <mxGeometry x="-330" y="3605" width="120" height="60" as="geometry" />
        </mxCell>
        <mxCell id="vgDRt3HnfkzPyJ0p5jBW-38" style="edgeStyle=orthogonalEdgeStyle;rounded=0;orthogonalLoop=1;jettySize=auto;html=1;entryX=0.5;entryY=0;entryDx=0;entryDy=0;" edge="1" parent="1" source="vgDRt3HnfkzPyJ0p5jBW-37" target="0iyKYwHK2RuOoZLVOAF2-164">
          <mxGeometry relative="1" as="geometry" />
        </mxCell>
        <mxCell id="vgDRt3HnfkzPyJ0p5jBW-37" value="Actualizar atributo" style="whiteSpace=wrap;html=1;" vertex="1" parent="1">
          <mxGeometry x="598" y="3400" width="120" height="60" as="geometry" />
        </mxCell>
        <mxCell id="vgDRt3HnfkzPyJ0p5jBW-43" style="edgeStyle=orthogonalEdgeStyle;rounded=0;orthogonalLoop=1;jettySize=auto;html=1;endArrow=none;endFill=0;" edge="1" parent="1" source="vgDRt3HnfkzPyJ0p5jBW-41">
          <mxGeometry relative="1" as="geometry">
            <mxPoint x="430" y="3730" as="targetPoint" />
            <Array as="points">
              <mxPoint x="739" y="3730" />
              <mxPoint x="540" y="3730" />
            </Array>
          </mxGeometry>
        </mxCell>
        <mxCell id="vgDRt3HnfkzPyJ0p5jBW-41" value="Descartar cambios" style="whiteSpace=wrap;html=1;" vertex="1" parent="1">
          <mxGeometry x="679" y="3604" width="120" height="60" as="geometry" />
        </mxCell>
        <mxCell id="vgDRt3HnfkzPyJ0p5jBW-45" style="edgeStyle=orthogonalEdgeStyle;rounded=0;orthogonalLoop=1;jettySize=auto;html=1;entryX=0.5;entryY=0;entryDx=0;entryDy=0;" edge="1" parent="1" source="vgDRt3HnfkzPyJ0p5jBW-44" target="0iyKYwHK2RuOoZLVOAF2-147">
          <mxGeometry relative="1" as="geometry">
            <Array as="points">
              <mxPoint x="659" y="3260" />
              <mxPoint x="659" y="3260" />
            </Array>
          </mxGeometry>
        </mxCell>
        <mxCell id="vgDRt3HnfkzPyJ0p5jBW-46" style="edgeStyle=orthogonalEdgeStyle;rounded=0;orthogonalLoop=1;jettySize=auto;html=1;endArrow=none;endFill=0;" edge="1" parent="1" source="vgDRt3HnfkzPyJ0p5jBW-44">
          <mxGeometry relative="1" as="geometry">
            <mxPoint x="410" y="3150" as="targetPoint" />
            <Array as="points">
              <mxPoint x="860" y="3260" />
              <mxPoint x="860" y="3150" />
              <mxPoint x="410" y="3150" />
            </Array>
          </mxGeometry>
        </mxCell>
        <mxCell id="vgDRt3HnfkzPyJ0p5jBW-44" value="¿Es lider de proyecto?" style="rhombus;whiteSpace=wrap;html=1;" vertex="1" parent="1">
          <mxGeometry x="685" y="3220" width="125" height="80" as="geometry" />
        </mxCell>
        <mxCell id="vgDRt3HnfkzPyJ0p5jBW-49" value="Si" style="text;html=1;align=center;verticalAlign=middle;resizable=0;points=[];autosize=1;strokeColor=none;fillColor=none;" vertex="1" parent="1">
          <mxGeometry x="657.5" y="3220" width="30" height="30" as="geometry" />
        </mxCell>
        <mxCell id="vgDRt3HnfkzPyJ0p5jBW-50" value="No" style="text;html=1;align=center;verticalAlign=middle;resizable=0;points=[];autosize=1;strokeColor=none;fillColor=none;" vertex="1" parent="1">
          <mxGeometry x="802.5" y="3220" width="40" height="30" as="geometry" />
        </mxCell>
        <mxCell id="vgDRt3HnfkzPyJ0p5jBW-51" value="" style="rounded=0;whiteSpace=wrap;html=1;" vertex="1" parent="1">
          <mxGeometry x="930" y="3205" width="381" height="485" as="geometry" />
        </mxCell>
        <mxCell id="vgDRt3HnfkzPyJ0p5jBW-52" value="Eliminar plan" style="text;html=1;align=center;verticalAlign=middle;resizable=0;points=[];autosize=1;strokeColor=none;fillColor=none;" vertex="1" parent="1">
          <mxGeometry x="935" y="3205" width="90" height="30" as="geometry" />
        </mxCell>
        <mxCell id="vgDRt3HnfkzPyJ0p5jBW-53" style="edgeStyle=orthogonalEdgeStyle;rounded=0;orthogonalLoop=1;jettySize=auto;html=1;" edge="1" parent="1" source="vgDRt3HnfkzPyJ0p5jBW-54">
          <mxGeometry relative="1" as="geometry">
            <mxPoint x="1129" y="3400" as="targetPoint" />
          </mxGeometry>
        </mxCell>
        <mxCell id="vgDRt3HnfkzPyJ0p5jBW-54" value="Ingresar a eliminar el plan" style="whiteSpace=wrap;html=1;" vertex="1" parent="1">
          <mxGeometry x="1069" y="3310" width="121" height="60" as="geometry" />
        </mxCell>
        <mxCell id="vgDRt3HnfkzPyJ0p5jBW-55" style="edgeStyle=orthogonalEdgeStyle;rounded=0;orthogonalLoop=1;jettySize=auto;html=1;entryX=0.5;entryY=0;entryDx=0;entryDy=0;" edge="1" parent="1" source="vgDRt3HnfkzPyJ0p5jBW-57" target="vgDRt3HnfkzPyJ0p5jBW-58">
          <mxGeometry relative="1" as="geometry">
            <Array as="points">
              <mxPoint x="1009" y="3545" />
            </Array>
          </mxGeometry>
        </mxCell>
        <mxCell id="vgDRt3HnfkzPyJ0p5jBW-56" style="edgeStyle=orthogonalEdgeStyle;rounded=0;orthogonalLoop=1;jettySize=auto;html=1;entryX=0.5;entryY=0;entryDx=0;entryDy=0;" edge="1" parent="1" source="vgDRt3HnfkzPyJ0p5jBW-57" target="vgDRt3HnfkzPyJ0p5jBW-63">
          <mxGeometry relative="1" as="geometry">
            <Array as="points">
              <mxPoint x="1209" y="3545" />
            </Array>
          </mxGeometry>
        </mxCell>
        <mxCell id="vgDRt3HnfkzPyJ0p5jBW-57" value="¿Esta seguro?" style="rhombus;whiteSpace=wrap;html=1;" vertex="1" parent="1">
          <mxGeometry x="1065.5" y="3505" width="126" height="80" as="geometry" />
        </mxCell>
        <mxCell id="vgDRt3HnfkzPyJ0p5jBW-69" style="edgeStyle=orthogonalEdgeStyle;rounded=0;orthogonalLoop=1;jettySize=auto;html=1;endArrow=none;endFill=0;" edge="1" parent="1" source="vgDRt3HnfkzPyJ0p5jBW-58">
          <mxGeometry relative="1" as="geometry">
            <mxPoint x="1330" y="3253.3333333333335" as="targetPoint" />
            <Array as="points">
              <mxPoint x="1010" y="3720" />
              <mxPoint x="1330" y="3720" />
            </Array>
          </mxGeometry>
        </mxCell>
        <mxCell id="vgDRt3HnfkzPyJ0p5jBW-58" value="Eliminar plan" style="whiteSpace=wrap;html=1;" vertex="1" parent="1">
          <mxGeometry x="949" y="3605" width="121" height="60" as="geometry" />
        </mxCell>
        <mxCell id="vgDRt3HnfkzPyJ0p5jBW-59" value="Si" style="text;html=1;align=center;verticalAlign=middle;resizable=0;points=[];autosize=1;strokeColor=none;fillColor=none;" vertex="1" parent="1">
          <mxGeometry x="1044" y="3520" width="30" height="30" as="geometry" />
        </mxCell>
        <mxCell id="vgDRt3HnfkzPyJ0p5jBW-60" value="No" style="text;html=1;align=center;verticalAlign=middle;resizable=0;points=[];autosize=1;strokeColor=none;fillColor=none;" vertex="1" parent="1">
          <mxGeometry x="1189" y="3520" width="40" height="30" as="geometry" />
        </mxCell>
        <mxCell id="vgDRt3HnfkzPyJ0p5jBW-61" style="edgeStyle=orthogonalEdgeStyle;rounded=0;orthogonalLoop=1;jettySize=auto;html=1;entryX=0.5;entryY=0;entryDx=0;entryDy=0;" edge="1" parent="1" source="vgDRt3HnfkzPyJ0p5jBW-62" target="vgDRt3HnfkzPyJ0p5jBW-57">
          <mxGeometry relative="1" as="geometry" />
        </mxCell>
        <mxCell id="vgDRt3HnfkzPyJ0p5jBW-62" value="Informar elementos a borrar" style="whiteSpace=wrap;html=1;" vertex="1" parent="1">
          <mxGeometry x="1068" y="3400" width="121" height="60" as="geometry" />
        </mxCell>
        <mxCell id="vgDRt3HnfkzPyJ0p5jBW-70" style="edgeStyle=orthogonalEdgeStyle;rounded=0;orthogonalLoop=1;jettySize=auto;html=1;endArrow=none;endFill=0;" edge="1" parent="1" source="vgDRt3HnfkzPyJ0p5jBW-63">
          <mxGeometry relative="1" as="geometry">
            <mxPoint x="1209.500000000001" y="3720" as="targetPoint" />
          </mxGeometry>
        </mxCell>
        <mxCell id="vgDRt3HnfkzPyJ0p5jBW-63" value="Descartar eliminacion" style="whiteSpace=wrap;html=1;" vertex="1" parent="1">
          <mxGeometry x="1149" y="3604" width="121" height="60" as="geometry" />
        </mxCell>
        <mxCell id="vgDRt3HnfkzPyJ0p5jBW-64" style="edgeStyle=orthogonalEdgeStyle;rounded=0;orthogonalLoop=1;jettySize=auto;html=1;entryX=0.5;entryY=0;entryDx=0;entryDy=0;" edge="1" parent="1" source="vgDRt3HnfkzPyJ0p5jBW-66" target="vgDRt3HnfkzPyJ0p5jBW-54">
          <mxGeometry relative="1" as="geometry">
            <Array as="points">
              <mxPoint x="1129" y="3260" />
              <mxPoint x="1129" y="3260" />
            </Array>
          </mxGeometry>
        </mxCell>
        <mxCell id="vgDRt3HnfkzPyJ0p5jBW-65" style="edgeStyle=orthogonalEdgeStyle;rounded=0;orthogonalLoop=1;jettySize=auto;html=1;endArrow=none;endFill=0;" edge="1" parent="1" source="vgDRt3HnfkzPyJ0p5jBW-66">
          <mxGeometry relative="1" as="geometry">
            <mxPoint x="860" y="3150" as="targetPoint" />
            <Array as="points">
              <mxPoint x="1330" y="3260" />
              <mxPoint x="1330" y="3150" />
              <mxPoint x="880" y="3150" />
            </Array>
          </mxGeometry>
        </mxCell>
        <mxCell id="vgDRt3HnfkzPyJ0p5jBW-66" value="¿Es lider de proyecto?" style="rhombus;whiteSpace=wrap;html=1;" vertex="1" parent="1">
          <mxGeometry x="1155" y="3220" width="126" height="80" as="geometry" />
        </mxCell>
        <mxCell id="vgDRt3HnfkzPyJ0p5jBW-67" value="Si" style="text;html=1;align=center;verticalAlign=middle;resizable=0;points=[];autosize=1;strokeColor=none;fillColor=none;" vertex="1" parent="1">
          <mxGeometry x="1127.5" y="3220" width="30" height="30" as="geometry" />
        </mxCell>
        <mxCell id="vgDRt3HnfkzPyJ0p5jBW-68" value="No" style="text;html=1;align=center;verticalAlign=middle;resizable=0;points=[];autosize=1;strokeColor=none;fillColor=none;" vertex="1" parent="1">
          <mxGeometry x="1272.5" y="3220" width="40" height="30" as="geometry" />
        </mxCell>
      </root>
    </mxGraphModel>
  </diagram>
</mxfile>
